<?xml version="1.0" encoding="UTF-8"?>
<svg version="1.1" xmlns="http://www.w3.org/2000/svg" width="1200" height="1203">
<path d="M0 0 C1.40798473 -0.00702257 2.81596914 -0.01410938 4.22395325 -0.02125549 C8.69618186 -0.04064575 13.16835858 -0.04568935 17.640625 -0.046875 C18.78362627 -0.04753778 18.78362627 -0.04753778 19.94971848 -0.04821396 C42.73756125 -0.05514424 65.25750801 0.24675272 87.890625 3.203125 C89.32738699 3.3825338 90.76423934 3.56122016 92.20117188 3.73925781 C158.09148361 11.9862516 221.00313608 30.74596394 280.890625 59.203125 C282.47206299 59.95142578 282.47206299 59.95142578 284.08544922 60.71484375 C298.82904033 67.74099029 312.88919692 75.80917878 326.890625 84.203125 C327.71578613 84.69312988 328.54094727 85.18313477 329.39111328 85.68798828 C360.86557843 104.38147653 390.54619958 126.52327671 417.625 151.15625 C419.70823627 153.03834621 421.82281433 154.87474812 423.953125 156.703125 C427.71624596 159.97408728 431.19399664 163.48821199 434.69140625 167.0390625 C436.59233476 168.90960317 438.52956545 170.62463198 440.578125 172.328125 C446.5580411 177.46563229 451.74461804 183.43163617 457.06933594 189.22900391 C458.82407593 191.13099152 460.59238839 193.01907909 462.3671875 194.90234375 C467.95083998 200.83598721 473.37276042 206.82006856 478.46484375 213.1875 C480.31889079 215.49237007 482.19440811 217.76756765 484.09765625 220.03125 C491.91546996 229.35354151 499.23690609 238.91568044 506.23876953 248.86425781 C507.92025947 251.24508453 509.62075755 253.61141834 511.32421875 255.9765625 C520.17147391 268.3360073 528.18258779 281.10694528 535.890625 294.203125 C536.40866699 295.08081543 536.92670898 295.95850586 537.46044922 296.86279297 C556.98006443 330.07686356 573.3670957 364.75419665 585.890625 401.203125 C586.21743256 402.14874298 586.21743256 402.14874298 586.55084229 403.11346436 C600.34148407 443.0637504 609.89586904 484.01234609 615.203125 525.953125 C615.35048096 527.11489258 615.49783691 528.27666016 615.6496582 529.47363281 C616.11124177 533.37938152 616.51475331 537.28842002 616.890625 541.203125 C616.97676056 542.07881134 617.06289612 542.95449768 617.15164185 543.85671997 C618.9062098 562.20401718 619.25476204 580.47232465 619.20868301 598.88434601 C619.20303833 601.1758074 619.20022067 603.46726137 619.19760132 605.75872803 C619.16112407 627.71016276 618.73803365 649.4044756 615.890625 671.203125 C615.71623716 672.61689586 615.54293221 674.03080064 615.37060547 675.44482422 C605.09704395 758.96743188 577.63764465 840.91404631 482.51171875 984.27783203 C480.98576695 986.09012961 479.46835197 987.90920309 477.953125 989.73046875 C472.23585942 996.57694693 466.3135528 1003.20215222 460.24365234 1009.73681641 C458.92361295 1011.16737516 457.6197717 1012.61282722 456.31640625 1014.05859375 C450.92597326 1020.02916303 445.38045016 1025.81658294 439.703125 1031.515625 C439.04997314 1032.17336914 438.39682129 1032.83111328 437.72387695 1033.50878906 C433.87223436 1037.34830584 429.90670577 1040.99510812 425.7902832 1044.54858398 C422.98769776 1046.9895455 420.28865678 1049.53609267 417.578125 1052.078125 C411.87604255 1057.37609689 405.97676772 1062.34889589 399.890625 1067.203125 C398.77271306 1068.1123913 397.6555644 1069.0225966 396.5390625 1069.93359375 C366.77198461 1094.13202822 334.59949415 1114.94593436 300.890625 1133.203125 C300.11235352 1133.62916016 299.33408203 1134.05519531 298.53222656 1134.49414062 C224.61307114 1174.84628774 141.51899635 1196.0097171 57.890625 1202.203125 C56.93542969 1202.27515137 55.98023438 1202.34717773 54.99609375 1202.42138672 C-23.1272065 1208.00797325 -103.31815729 1196.10871081 -224.109375 1152.203125 C-225.80441162 1151.44926514 -225.80441162 1151.44926514 -227.53369141 1150.68017578 C-274.00827616 1129.88294492 -318.14600803 1103.19425766 -357.36962891 1070.64306641 C-359.80948601 1068.6236618 -362.27357064 1066.63441539 -364.734375 1064.640625 C-382.71220992 1049.89445527 -382.71220992 1049.89445527 -389.42895508 1042.88256836 C-391.12238002 1041.19012753 -392.88396922 1039.64507036 -394.70703125 1038.09375 C-399.57483816 1033.86060794 -404.12289726 1029.33638556 -408.671875 1024.765625 C-409.48333984 1023.95802734 -410.29480469 1023.15042969 -411.13085938 1022.31835938 C-415.43275376 1018.00952085 -419.57782999 1013.62655192 -423.54760742 1009.01000977 C-425.7961141 1006.40860318 -428.14073311 1003.906697 -430.484375 1001.390625 C-434.72123917 996.79887819 -438.76343383 992.09358386 -442.6796875 987.22265625 C-444.47101761 984.9964534 -446.27675803 982.78824384 -448.1015625 980.58984375 C-469.20629387 955.08173592 -487.90878174 927.0628838 -504.109375 898.203125 C-504.63547363 897.26903809 -505.16157227 896.33495117 -505.70361328 895.37255859 C-549.52387716 817.12678007 -575.10163889 729.69482149 -581.3125 620.65625 C-581.3195634 619.20356209 -581.32669609 617.75087451 -581.33389282 616.29818726 C-581.35341371 611.6831613 -581.35858471 607.06818838 -581.359375 602.453125 C-581.35966957 601.66663322 -581.35996414 600.88014145 -581.36026764 600.06981659 C-581.36297456 555.34933392 -581.36297456 555.34933392 -578.38800049 533.27734375 C-578.08573172 531.02711335 -577.79632791 528.77540835 -577.50732422 526.5234375 C-566.39730404 441.01733229 -538.3031021 357.99924696 -451.109375 226.203125 C-450.36300781 225.27371094 -449.61664063 224.34429687 -448.84765625 223.38671875 C-437.79059764 209.7490181 -426.39025304 196.2380134 -413.82666016 183.95458984 C-412.08884204 182.18218336 -410.48592036 180.34053792 -408.87890625 178.44921875 C-405.32775671 174.36927399 -401.52542837 170.67409889 -397.546875 167.015625 C-396.85505127 166.37415527 -396.16322754 165.73268555 -395.45043945 165.07177734 C-394.02884941 163.75392101 -392.60592199 162.4375058 -391.18164062 161.12255859 C-389.22631041 159.31143628 -387.28279858 157.48868112 -385.34375 155.66015625 C-378.4846447 149.20469261 -371.46894276 143.08882707 -364.109375 137.203125 C-362.91779391 136.22184278 -361.72778904 135.23864455 -360.5390625 134.25390625 C-288.12429439 74.42343983 -200.6773124 32.85470698 0 0 Z " fill="#DF3E27" transform="translate(581.109375,-0.203125)"/>
<path d="M0 0 C0.72977051 0.31549805 1.45954102 0.63099609 2.21142578 0.95605469 C17.33547269 7.53172726 31.33306834 15.898898 44.375 25.98828125 C51.22612186 31.32643289 51.22612186 31.32643289 59 35 C61.18346044 33.71827253 63.19061232 32.39636308 65.25 30.9375 C85.34609924 17.37467879 110.35024721 13.10477488 134.2265625 16.49609375 C150.77460895 19.80196759 165.23662412 27.0970484 178 38 C178.71929688 38.6084375 179.43859375 39.216875 180.1796875 39.84375 C181.79507993 41.21910419 183.39904577 42.60786588 185 44 C186.08517741 40.77931292 187.13878142 37.55391688 188.1484375 34.30859375 C188.55717393 33.01819187 188.96602953 31.72782773 189.375 30.4375 C189.66890625 29.46780273 189.66890625 29.46780273 189.96875 28.47851562 C191.52290585 23.64391056 193.38513717 19.59497412 197.83906555 16.87823486 C204.37111344 14.22351658 212.68666946 16.20851878 219.42578125 17.390625 C220.71915909 17.60748207 220.71915909 17.60748207 222.03866577 17.82872009 C224.79815402 18.29388245 227.55535754 18.77114542 230.3125 19.25 C232.20998779 19.57494425 234.10753031 19.89956901 236.00512695 20.22387695 C240.54978054 21.00331545 245.09233167 21.79433677 249.63439941 22.58868408 C252.81433217 23.14159101 255.99714877 23.67716967 259.1796875 24.21484375 C261.01595565 24.53718456 262.85193793 24.86116246 264.6875 25.1875 C265.46714111 25.31737305 266.24678223 25.44724609 267.05004883 25.58105469 C272.12791663 26.52475476 275.74136483 28.18459934 280 31 C280.33 31.66 280.66 32.32 281 33 C281.61875 32.67 282.2375 32.34 282.875 32 C291.18703978 29.34014727 300.35957226 31.46883561 308.76171875 32.86328125 C309.95175003 33.05593063 311.14178131 33.24858002 312.36787415 33.44706726 C314.86869861 33.85423404 317.36887204 34.26541782 319.8684082 34.68041992 C323.6844117 35.31198887 327.5030474 35.92531788 331.32226562 36.53710938 C333.76059608 36.93640592 336.19875357 37.33676044 338.63671875 37.73828125 C339.77227707 37.91966141 340.90783539 38.10104156 342.07780457 38.28791809 C355.77044866 40.59443145 355.77044866 40.59443145 360.375 45.5625 C365.15140966 52.72711449 362.78053098 61.73352997 361.49609375 69.8125 C361.33748367 70.84353348 361.1788736 71.87456696 361.01545715 72.93684387 C360.49682759 76.29242119 359.96777242 79.64624434 359.4375 83 C359.07309362 85.33029904 358.70883731 87.66062155 358.34472656 89.9909668 C356.18634648 103.74685491 353.98596782 117.49678549 351.68289185 131.22924805 C351.3989651 132.92356114 351.11705489 134.61821365 350.83737183 136.31323242 C346.25079718 163.99908508 346.25079718 163.99908508 340.1875 175.375 C339.67147217 176.37358032 339.67147217 176.37358032 339.14501953 177.39233398 C336.30738623 182.73717338 332.98774668 187.44392837 329 192 C328.50886719 192.60972656 328.01773438 193.21945312 327.51171875 193.84765625 C324.43352739 197.6227966 321.06938834 200.7931455 317.37109375 203.953125 C308.41856906 211.68149886 299.96082581 219.90191169 291.73242188 228.39233398 C291.10271484 229.03372314 290.47300781 229.6751123 289.82421875 230.3359375 C289.27854248 230.89845215 288.73286621 231.4609668 288.1706543 232.04052734 C286 234 286 234 284.09469604 235.11224365 C279.37285029 238.0257503 277.45437102 240.39991963 276.05371094 245.81835938 C275.58149052 248.15383058 275.1435304 250.49640901 274.734375 252.84375 C274.48882874 254.08620483 274.24328247 255.32865967 273.99029541 256.60876465 C273.34417223 259.8974712 272.72514098 263.18876686 272.12109375 266.48529053 C271.26624249 271.12637363 270.37199837 275.75972608 269.46685791 280.39123535 C268.98805014 282.85234158 268.52429962 285.3164377 268.07757568 287.78356934 C266.32995445 296.93577182 263.83892511 301.54101518 257 308 C257.37511719 308.40347656 257.75023437 308.80695313 258.13671875 309.22265625 C268.78555017 321.85640839 269.27063902 337.26088871 268 353 C266.11317358 367.35991788 257.27995154 382.49035211 245.8984375 391.234375 C242.66180357 393.64768148 239.38229209 395.99566961 236.08984375 398.33203125 C231.92628924 401.29308078 227.92866519 404.41210917 223.95141602 407.6171875 C216.03987672 413.97849851 208.37167752 419.03554204 199 423 C198.21568604 423.33257813 197.43137207 423.66515625 196.62329102 424.0078125 C187.52199316 427.45012748 177.8488568 427.32189929 168.25 427.25 C167.58437042 427.24590118 166.91874084 427.24180237 166.23294067 427.23757935 C146.01540572 427.09149582 125.31781084 424.42318832 108 413 C107.50387207 412.43369873 107.00774414 411.86739746 106.49658203 411.28393555 C105.75577393 410.64838745 105.75577393 410.64838745 105 410 C102.03058503 410.29532789 99.55852623 411.60082576 96.91015625 412.92578125 C95.74383667 413.49981689 95.74383667 413.49981689 94.55395508 414.08544922 C93.7317749 414.49037598 92.90959473 414.89530273 92.0625 415.3125 C65.69622428 427.99602173 31.38798879 433.46266293 3 424 C-2.63211324 423.553552 -6.68476105 424.8318715 -11.75 427.0625 C-38.070554 437.87580989 -65.17726288 441.23209965 -93.375 441.3125 C-94.21477386 441.31635712 -95.05454773 441.32021423 -95.91976929 441.32418823 C-111.83094391 441.36019209 -127.38464302 440.25905952 -142.875 436.4375 C-144.27685547 436.10588867 -144.27685547 436.10588867 -145.70703125 435.76757812 C-152.26911829 434.20943551 -152.26911829 434.20943551 -154.9987793 433.42724609 C-157.275196 432.94124765 -159.26513332 432.95207961 -161.58984375 433.04296875 C-162.45673828 433.06423828 -163.32363281 433.08550781 -164.21679688 433.10742188 C-166.02707932 433.1607037 -167.8370543 433.22576511 -169.64648438 433.30273438 C-173.75350562 433.38505774 -176.29776423 433.39075271 -179.94140625 431.36328125 C-182 429 -182 429 -183.38671875 425.99609375 C-185.44275153 422.17774715 -188.02652503 420.83457415 -191.8125 419.0625 C-192.71838867 418.58973633 -192.71838867 418.58973633 -193.64257812 418.10742188 C-197.86092955 416.05046472 -200.52385148 415.64000772 -205 417 C-207.19953122 418.03715519 -209.36523297 419.1478549 -211.5 420.3125 C-231.53706647 430.84328332 -257.30747722 432.38480967 -279 426 C-292.64656493 421.44373129 -303.44751205 413.67563365 -314 404 C-314.24234375 404.54269531 -314.4846875 405.08539062 -314.734375 405.64453125 C-315.06953125 406.35996094 -315.4046875 407.07539062 -315.75 407.8125 C-316.07484375 408.52019531 -316.3996875 409.22789062 -316.734375 409.95703125 C-319.03958745 413.6780995 -321.35088237 414.83386152 -325.59326172 415.91967773 C-327.0367137 416.18554602 -328.48240109 416.43945928 -329.9296875 416.68359375 C-331.09825035 416.89442345 -331.09825035 416.89442345 -332.29042053 417.10951233 C-334.81685247 417.56282013 -337.3456917 418.000553 -339.875 418.4375 C-341.60766569 418.74387445 -343.34016902 419.05116851 -345.07250977 419.359375 C-347.65325566 419.81793748 -350.23417751 420.27525527 -352.81599426 420.72775269 C-357.60659296 421.56777698 -362.38674588 422.44493251 -367.16015625 423.37890625 C-368.15998535 423.57234619 -369.15981445 423.76578613 -370.18994141 423.96508789 C-371.95808294 424.30932088 -373.72483785 424.66079647 -375.48974609 425.02124023 C-381.52887061 426.17122104 -386.46262731 426.49768507 -391.96484375 423.25 C-392.94582031 422.5075 -393.92679688 421.765 -394.9375 421 C-399.92594221 417.34521918 -405.0314671 414.12869926 -410.4375 411.125 C-411.09935303 410.75632812 -411.76120605 410.38765625 -412.44311523 410.0078125 C-415.34403862 408.40912711 -418.17323841 406.92566497 -421.22265625 405.6171875 C-425.72889132 402.99330379 -427.59877402 399.44812751 -428.97454834 394.48260498 C-429.1966095 393.18735901 -429.41867065 391.89211304 -429.64746094 390.55761719 C-429.77484146 389.83818939 -429.90222198 389.1187616 -430.03346252 388.37753296 C-430.44745952 386.01945918 -430.84108691 383.65848301 -431.234375 381.296875 C-431.51891888 379.65093508 -431.80468382 378.00520582 -432.09161377 376.35968018 C-432.84085995 372.04223963 -433.57260502 367.72200698 -434.30096436 363.40100098 C-434.89983137 359.8654308 -435.51070586 356.33198632 -436.12228012 352.79859543 C-437.38391331 345.50945385 -438.63768894 338.21894455 -439.87011719 330.92480469 C-440.08899597 329.63274109 -440.30787476 328.34067749 -440.53338623 327.00946045 C-441 324 -441 324 -441 322 C-441.58088379 321.72615479 -442.16176758 321.45230957 -442.76025391 321.17016602 C-444.95772467 320.02208695 -446.84527718 318.75128901 -448.8359375 317.27734375 C-449.92817627 316.47598999 -449.92817627 316.47598999 -451.04248047 315.65844727 C-451.81221191 315.09053467 -452.58194336 314.52262207 -453.375 313.9375 C-460.13127318 308.98029531 -466.97778036 304.37964123 -474.1796875 300.09765625 C-479.7443582 295.95883607 -481.5055931 291.22478348 -482.6328125 284.5390625 C-482.75558563 283.83083344 -482.87835876 283.12260437 -483.00485229 282.39291382 C-483.39169299 280.13898631 -483.7582359 277.8822707 -484.125 275.625 C-484.37766944 274.14952725 -484.63156692 272.67426425 -484.88671875 271.19921875 C-485.89414707 265.27920658 -486.88729014 259.37928222 -487.48339844 253.40136719 C-487.55992645 252.66558441 -487.63645447 251.92980164 -487.71530151 251.17172241 C-487.91792449 249.14131042 -488.09619258 247.10851069 -488.27294922 245.07568359 C-488.65283324 241.93612565 -488.65283324 241.93612565 -490.84350586 240.72412109 C-491.91097046 240.36568115 -491.91097046 240.36568115 -493 240 C-494.21249286 239.15985271 -495.40368803 238.28831327 -496.57421875 237.390625 C-497.23776367 236.8862793 -497.90130859 236.38193359 -498.58496094 235.86230469 C-499.27879883 235.33024414 -499.97263672 234.79818359 -500.6875 234.25 C-505.70464861 230.41629087 -510.66142089 226.73089567 -516.203125 223.671875 C-522.67721197 217.6481593 -523.26136498 208.2940942 -524.48828125 200.0546875 C-524.70938629 198.64149256 -524.93187503 197.22851354 -525.15562439 195.81573486 C-525.6358238 192.7703158 -526.10847182 189.72386251 -526.57507324 186.67633057 C-527.84327427 178.39914814 -529.15863687 170.12938442 -530.47265625 161.859375 C-530.61028255 160.99046253 -530.74790886 160.12155006 -530.88970566 159.22630692 C-533.15863531 144.92209074 -535.59607386 130.65172673 -538.12109375 116.390625 C-538.37959579 114.92779524 -538.37959579 114.92779524 -538.64332008 113.43541336 C-540.340105 103.8358707 -542.04767348 94.23836893 -543.77855015 84.64491272 C-544.42172056 81.06846845 -545.05670492 77.4906019 -545.68988228 73.9123764 C-545.98519329 72.25509378 -546.28422483 70.59846882 -546.58738518 68.94260406 C-550.79711734 45.93983418 -550.79711734 45.93983418 -547.375 38.4375 C-541.72272168 32.63647751 -534.46421357 31.90809489 -526.8125 30.5546875 C-525.6366333 30.33934357 -524.4607666 30.12399963 -523.24926758 29.90213013 C-519.50101646 29.21781747 -515.75060167 28.54629706 -512 27.875 C-509.47641136 27.41619514 -506.95297195 26.95656862 -504.4296875 26.49609375 C-478.86416928 21.84263162 -478.86416928 21.84263162 -473.4375 21.75 C-472.52871094 21.72421875 -471.61992187 21.6984375 -470.68359375 21.671875 C-464.27590943 22.45534732 -460.88646135 27.07440945 -457 31.75 C-456.49210937 32.34554687 -455.98421875 32.94109375 -455.4609375 33.5546875 C-452.08080216 37.55884782 -448.99731664 41.70237688 -446 46 C-445.44441406 45.30390625 -444.88882813 44.6078125 -444.31640625 43.890625 C-443.55199219 42.93671875 -442.78757812 41.9828125 -442 41 C-440.80697266 39.50726563 -440.80697266 39.50726563 -439.58984375 37.984375 C-422.62210038 17.12171226 -398.06973413 1.98837911 -371 -1 C-340.02667031 -3.08753645 -311.39996596 3.88522834 -287.65332031 24.48095703 C-283.09789361 28.66640667 -279.01625912 33.30343576 -275 38 C-271.3744506 36.36069656 -268.3411059 34.14237223 -265.125 31.8125 C-251.44019883 22.1937403 -236.38254552 15.62549107 -219.6875 14.0625 C-213.63425232 13.46996531 -209.26545728 12.01741403 -204.07421875 8.8359375 C-143.43931448 -27.37550469 -63.6076117 -28.10282522 0 0 Z " fill="#020202" transform="translate(693,390)"/>
<path d="M0 0 C18.26366516 13.85704058 31.80677861 33.42326897 35.66552734 56.26367188 C35.91371006 60.96936663 35.8967186 65.67708167 35.91552734 70.38867188 C35.94646484 72.29132813 35.94646484 72.29132813 35.97802734 74.23242188 C36.01041366 82.08610357 35.23584379 88.83881784 32.66552734 96.26367188 C32.43575195 96.94961426 32.20597656 97.63555664 31.96923828 98.34228516 C23.81673584 121.58111943 7.95120339 139.73143351 -14.09082031 150.56201172 C-34.60430009 160.06873826 -58.4971313 162.60260718 -80.33447266 156.26367188 C-81.02130127 156.07385742 -81.70812988 155.88404297 -82.41577148 155.68847656 C-84.96997553 153.79175499 -85.1448556 151.90131848 -85.65115356 148.85610962 C-85.75547699 148.11662079 -85.85980042 147.37713196 -85.96728516 146.61523438 C-86.09005829 145.84746674 -86.21283142 145.0796991 -86.33932495 144.28866577 C-86.72953032 141.82428792 -87.09488887 139.35695711 -87.45947266 136.88867188 C-87.71172811 135.26471667 -87.96561719 133.64101434 -88.22119141 132.01757812 C-89.13188158 126.20323411 -90.01313773 120.38448236 -90.89477539 114.56567383 C-91.06178955 113.50566162 -91.22880371 112.44564941 -91.40087891 111.35351562 C-91.60886108 110.00567993 -91.60886108 110.00567993 -91.82104492 108.63061523 C-92.85286112 103.87385916 -94.85990068 100.53344219 -98.58447266 97.32617188 C-106.6265994 94.21898654 -116.1703156 97.2834341 -124.33447266 98.76367188 C-125.69503884 99.00518291 -127.05571529 99.24607359 -128.41650391 99.48632812 C-131.72362702 100.07269747 -135.0295013 100.66531419 -138.33447266 101.26367188 C-139.06208373 97.25020014 -139.77322198 93.23415195 -140.47070312 89.21533203 C-140.70895736 87.85520414 -140.95131792 86.49578767 -141.19824219 85.13720703 C-145.30357102 62.49925088 -142.93661266 42.71171241 -130.07080078 23.36328125 C-115.37772734 2.51352622 -94.10125878 -11.29451638 -69.09277344 -16.31298828 C-44.6161766 -20.06961945 -20.02644919 -14.46579688 0 0 Z " fill="#F8F9F6" transform="translate(389.33447265625,418.736328125)"/>
<path d="M0 0 C6.10990251 -0.25600592 11.70683657 0.72243375 17.69140625 1.8984375 C18.71370834 2.09345856 19.73601044 2.28847961 20.78929138 2.4894104 C24.04822246 3.11189257 27.30543338 3.74284098 30.5625 4.375 C34.83384019 5.19950149 39.10593231 6.01994514 43.37890625 6.8359375 C44.39812164 7.03072693 45.41733704 7.22551636 46.46743774 7.4262085 C53.95345695 8.84075814 61.43828819 10.05656648 69 11 C72.09410745 26.63453221 74.72032627 42.3179906 77.1875 58.0625 C77.71962745 61.44694629 78.25273397 64.83123038 78.78791809 68.2151947 C79.11703908 70.29722129 79.44434865 72.37953527 79.76957703 74.46217346 C79.91675674 75.39512741 80.06393646 76.32808136 80.21557617 77.28930664 C80.34340988 78.10532852 80.47124359 78.9213504 80.60295105 79.76210022 C80.97757493 81.87360488 81.45199742 83.92745441 82 86 C82.10387024 85.40325974 82.20774048 84.80651947 82.3147583 84.19169617 C83.41433783 77.87847805 84.51864744 71.56609939 85.62548828 65.25415039 C86.03583735 62.91060485 86.4450518 60.5668603 86.85302734 58.22290039 C89.31407042 44.0885314 91.91697593 30.01287597 95 16 C110.25610173 18.30132665 125.41163551 20.95959893 140.53930664 23.98095703 C141.78574951 24.2282959 143.03219238 24.47563477 144.31640625 24.73046875 C145.41412354 24.95114014 146.51184082 25.17181152 147.64282227 25.39916992 C151.42153509 26.07544163 155.18780793 26.55234738 159 27 C157.23339395 39.37688945 155.21218608 51.66579783 152.81329346 63.93560791 C151.92104027 68.50453145 151.04509835 73.07659062 150.16796875 77.6484375 C149.9867749 78.59177948 149.80558105 79.53512146 149.61889648 80.50704956 C147.72914719 90.36909966 145.91653425 100.24469544 144.125 110.125 C143.8865033 111.43886185 143.8865033 111.43886185 143.64318848 112.77926636 C141.50738477 124.55556006 139.40358142 136.33747738 137.30859375 148.12109375 C137.08030884 149.40399292 136.85202393 150.68689209 136.61682129 152.00866699 C135.48694531 158.35889404 134.35951661 164.70953539 133.23681641 171.06103516 C132.82592303 173.37533914 132.41495661 175.68963015 132.00390625 178.00390625 C131.72165443 179.60847939 131.72165443 179.60847939 131.43370056 181.24546814 C131.17176659 182.71639671 131.17176659 182.71639671 130.90454102 184.21704102 C130.677593 185.50022972 130.677593 185.50022972 130.44606018 186.80934143 C130 189 130 189 129 192 C121.74976522 191.44395193 114.66101619 190.54114577 107.51171875 189.22265625 C106.56488724 189.05124619 105.61805573 188.87983612 104.64253235 188.70323181 C102.66156671 188.34333596 100.68103323 187.98105364 98.70092773 187.61645508 C95.67879623 187.06089999 92.65498009 186.5153141 89.63085938 185.97070312 C87.69520456 185.61777898 85.75965383 185.2642834 83.82421875 184.91015625 C82.92724777 184.74862564 82.03027679 184.58709503 81.10612488 184.42066956 C76.60311374 183.58510489 72.24854967 182.75642181 68 181 C67.32699356 180.74175446 66.65398712 180.48350891 65.96058655 180.21743774 C62.38325311 178.50443842 60.44209547 177.09767088 58.93389893 173.35299683 C58.13928929 169.92048697 57.58833539 166.51690424 57.1015625 163.02734375 C56.89566498 161.75331192 56.68976746 160.47928009 56.47763062 159.16664124 C55.93132357 155.78400065 55.42704774 152.39639888 54.93164062 149.00598145 C54.4259024 145.59446303 53.88148985 142.18917119 53.33984375 138.78320312 C52.54462533 133.75823461 51.77109415 128.73045436 51.01806641 123.69897461 C50.08043697 117.45408662 49.05962021 111.22525763 48 105 C43.31274892 128.6070548 39.08268139 152.28147854 35 176 C22.82188695 174.38718333 10.70938497 172.50190189 -1.38259888 170.3381958 C-2.87637418 170.07127233 -4.37057904 169.80674156 -5.86520386 169.5446167 C-7.98706979 169.17128703 -10.10695966 168.78829038 -12.2265625 168.40234375 C-13.45971191 168.18054443 -14.69286133 167.95874512 -15.96337891 167.73022461 C-19 167 -19 167 -22 165 C-21.52691406 164.5359375 -21.05382812 164.071875 -20.56640625 163.59375 C-2.57822674 144.79908291 4.58965061 118.54775148 4.421875 93.06420898 C3.98113703 79.02003568 0.26327298 63.29941863 -7.09716797 51.19580078 C-10.57815418 42.72960554 -6.08763757 28.80586765 -4.41601562 19.95458984 C-3.99284747 17.71209664 -3.58155585 15.46764907 -3.171875 13.22265625 C-1.15530309 2.31060619 -1.15530309 2.31060619 0 0 Z " fill="#FDFCFC" transform="translate(585,409)"/>
<path d="M0 0 C1.44024689 6.64965055 2.50408912 13.30881518 3.4375 20.046875 C4.06180983 24.43438574 4.74175347 28.81085712 5.4375 33.1875 C5.56503662 33.98986084 5.69257324 34.79222168 5.82397461 35.61889648 C6.08535092 37.26078377 6.34698988 38.90262926 6.60888672 40.54443359 C7.24352517 44.52894894 7.87149258 48.51451383 8.5 52.5 C8.74996655 54.08333861 8.99996659 55.66667194 9.25 57.25 C14.5 90.5 14.5 90.5 19.75 123.75 C19.87391113 124.5344751 19.99782227 125.3189502 20.12548828 126.12719727 C20.37422878 127.70314832 20.62260397 129.27915709 20.87060547 130.85522461 C21.51182072 134.92706786 22.16024863 138.99757282 22.8203125 143.06640625 C22.95501953 143.90300781 23.08972656 144.73960937 23.22851562 145.6015625 C23.48262202 147.17877461 23.73893171 148.75563427 23.99804688 150.33203125 C24.88672784 155.8703303 25.49189696 161.41450622 26 167 C24.5919812 167.2333606 24.5919812 167.2333606 23.15551758 167.47143555 C18.70765268 168.20896689 14.26005652 168.94811163 9.8125 169.6875 C9.00587921 169.82150208 8.19925842 169.95550415 7.36819458 170.09356689 C-1.33968505 171.54104486 -10.0455501 172.99798692 -18.7421875 174.51171875 C-19.41359268 174.62845444 -20.08499786 174.74519012 -20.77674866 174.86546326 C-23.93477357 175.41522137 -27.092124 175.96854972 -30.2487793 176.52612305 C-31.36422119 176.72117432 -32.47966309 176.91622559 -33.62890625 177.1171875 C-34.59900635 177.28847168 -35.56910645 177.45975586 -36.56860352 177.63623047 C-39 178 -39 178 -42 178 C-42.35602295 177.33282959 -42.7120459 176.66565918 -43.07885742 175.97827148 C-51.04194779 161.07469775 -59.15677913 146.27806787 -67.5234375 131.59619141 C-69.80035283 127.59276587 -72.05718264 123.57812055 -74.3125 119.5625 C-74.69188721 118.88751465 -75.07127441 118.2125293 -75.4621582 117.51708984 C-76.30835438 116.0115331 -77.15422162 114.50579149 -78 113 C-76.44177231 124.22632219 -74.80132166 135.43489307 -73 146.625 C-72.83177734 147.67067139 -72.66355469 148.71634277 -72.49023438 149.79370117 C-71.84047565 153.82176626 -71.18831307 157.84941499 -70.52929688 161.87597656 C-70.09983292 164.50016865 -69.67469527 167.12503276 -69.25 169.75 C-69.12238281 170.51779785 -68.99476563 171.2855957 -68.86328125 172.07666016 C-68.2688234 175.76613939 -67.94689773 179.26835899 -68 183 C-120.76159212 193 -120.76159212 193 -132 193 C-139.7794735 153.94404269 -139.7794735 153.94404269 -135.10546875 137.9140625 C-132.39677045 128.62392823 -131.42199427 119.25011428 -130.59765625 109.6328125 C-130.47446399 108.24126679 -130.35080085 106.84976269 -130.22669983 105.45829773 C-129.89933485 101.77188684 -129.57880501 98.08491276 -129.25980377 94.39776993 C-128.93014392 90.60037169 -128.59423818 86.80352539 -128.25927734 83.0065918 C-126.44022906 62.34342414 -124.66204259 41.67644037 -123 21 C-117.2074285 18.97273289 -111.46920502 17.86396777 -105.4375 16.8125 C-104.40947266 16.62236328 -103.38144531 16.43222656 -102.32226562 16.23632812 C-101.32775391 16.06166016 -100.33324219 15.88699219 -99.30859375 15.70703125 C-97.95979126 15.46690308 -97.95979126 15.46690308 -96.58374023 15.22192383 C-93.67782727 14.97232779 -91.74780194 14.98568793 -89 16 C-87.27758789 18.27124023 -87.27758789 18.27124023 -85.72265625 21.30859375 C-85.13355469 22.43587891 -84.54445313 23.56316406 -83.9375 24.72460938 C-83.31237065 25.96217425 -82.68737389 27.19980611 -82.0625 28.4375 C-81.40683287 29.703452 -80.74925479 30.96841597 -80.08984375 32.23242188 C-78.72727383 34.84771899 -77.37278815 37.46696388 -76.02392578 40.08935547 C-72.92403162 46.09971098 -69.71033857 52.04807169 -66.5 58 C-65.94965088 59.02923584 -65.39930176 60.05847168 -64.83227539 61.11889648 C-61.04532865 68.17422637 -57.07556325 75.10759319 -53 82 C-53.08975098 81.4416748 -53.17950195 80.88334961 -53.27197266 80.30810547 C-54.40394987 73.26108915 -55.53016253 66.21315916 -56.65447998 59.16491699 C-57.02334942 56.85370007 -57.39277195 54.54257189 -57.76220703 52.23144531 C-58.43831853 48.00003404 -59.1119005 43.76822529 -59.78411865 39.53619385 C-60.05132384 37.85618517 -60.31925868 36.17629237 -60.58795166 34.496521 C-60.97079009 32.10216061 -61.3509131 29.70738269 -61.73046875 27.3125 C-61.843871 26.60699005 -61.95727325 25.9014801 -62.07411194 25.17459106 C-62.86949013 20.1308113 -63.47255916 15.07851893 -64 10 C-50.39062155 7.22590607 -36.71488187 4.92947791 -23 2.75 C-22.14968201 2.61358093 -21.29936401 2.47716187 -20.42327881 2.33660889 C-17.97035416 1.943992 -15.51661134 1.5569969 -13.0625 1.171875 C-12.32363556 1.05331146 -11.58477112 0.93474792 -10.82351685 0.81259155 C-7.18227178 0.24879917 -3.68605551 -0.13525155 0 0 Z " fill="#FCFCFC" transform="translate(643,598)"/>
<path d="M0 0 C18.34475865 15.26710429 30.75547478 36.40609054 33.97583008 60.19677734 C35.95816352 83.73770522 29.60710153 107.3448743 14.81567383 125.90771484 C12.61468837 128.43089041 10.34119535 130.82744998 7.97583008 133.19677734 C7.21657227 133.96763672 6.45731445 134.73849609 5.67504883 135.53271484 C-3.03061349 143.88217167 -13.09375959 149.30301425 -24.27416992 153.57177734 C-24.89888184 153.81049561 -25.52359375 154.04921387 -26.16723633 154.29516602 C-47.58736665 162.01702525 -71.41676797 159.77716053 -91.83666992 150.44677734 C-98.80503732 147.084495 -105.054301 143.14511454 -111.02416992 138.19677734 C-111.89686523 137.47490234 -112.76956055 136.75302734 -113.66870117 136.00927734 C-118.9551037 131.44410815 -124.71478838 126.44517644 -128.02416992 120.19677734 C-127.83910762 116.4807264 -125.65144054 114.21483366 -123.39916992 111.38427734 C-107.37439919 89.76947031 -103.55044163 62.75245119 -106.30834961 36.49072266 C-107.69195475 27.56962251 -110.86661271 19.40996049 -114.91308594 11.36962891 C-117.15279454 6.77198662 -117.15279454 6.77198662 -116.53588867 4.01318359 C-88.89997487 -29.19275935 -30.95950454 -24.6431705 0 0 Z " fill="#FDFCFC" transform="translate(543.024169921875,435.80322265625)"/>
<path d="M0 0 C7.85420919 -0.18338232 15.43953228 0.34677054 23.23046875 1.3125 C24.90511955 1.5122644 24.90511955 1.5122644 26.61360168 1.71606445 C30.13899338 2.1379936 33.66322659 2.56884017 37.1875 3 C39.59432975 3.28965549 42.00123027 3.5787236 44.40820312 3.8671875 C50.27297024 4.57134009 56.13681561 5.28279443 62 6 C62.06602733 10.99166611 62.03703037 15.84295106 61.3359375 20.796875 C61.18608398 21.89483398 61.03623047 22.99279297 60.88183594 24.12402344 C60.71458008 25.3205957 60.54732422 26.51716797 60.375 27.75 C58.48270524 41.87323923 56.78310315 56.01621673 55.16094971 70.17297363 C54.88855965 72.5439363 54.61380692 74.91462882 54.33660889 77.28503418 C53.94207693 80.66329199 53.55591938 84.04241078 53.171875 87.421875 C53.05331146 88.42613525 52.93474792 89.43039551 52.81259155 90.46508789 C50.99789496 102.19240693 50.99789496 102.19240693 53.875 113.125 C56.42102425 115.37149198 57.42057016 115.94849513 60.8125 116.25 C64.46682966 115.96338591 66.15610986 115.2909115 69 113 C70.57026055 109.69654136 71.32289218 106.70077217 71.71435547 103.07836914 C71.87515343 101.63929199 71.87515343 101.63929199 72.03919983 100.17114258 C72.14743576 99.13626709 72.25567169 98.1013916 72.3671875 97.03515625 C72.48682358 95.94541504 72.60645966 94.85567383 72.72972107 93.73291016 C73.11834263 90.17681443 73.49676048 86.61971365 73.875 83.0625 C74.14028413 80.61704259 74.40615653 78.17164892 74.67260742 75.72631836 C76.42204142 59.61853717 78.13521605 43.50626505 79.79443359 27.38891602 C79.90755638 26.2958313 79.90755638 26.2958313 80.02296448 25.18066406 C80.22123507 23.26256368 80.41794208 21.34430184 80.61450195 19.42602539 C81.00691137 15.93857674 81.48617184 12.47145964 82 9 C89.36246919 8.81358512 96.47126091 9.36872352 103.7734375 10.27734375 C104.85960358 10.40814835 105.94576965 10.53895294 107.06484985 10.67372131 C109.34256442 10.9491966 111.61993723 11.22751124 113.89697266 11.50854492 C117.38497241 11.93872993 120.87398994 12.35972956 124.36328125 12.77929688 C126.58339821 13.04894553 128.80345265 13.3191096 131.0234375 13.58984375 C132.58594742 13.77896584 132.58594742 13.77896584 134.18002319 13.97190857 C135.14848175 14.09195755 136.11694031 14.21200653 137.11474609 14.33569336 C137.96394623 14.4400621 138.81314636 14.54443085 139.68807983 14.65196228 C141.84215338 14.97623768 143.89865114 15.43149566 146 16 C145.31305446 31.22027338 143.86466205 46.37906156 142.47094727 61.546875 C142.13028703 65.25436505 141.79410099 68.96224487 141.45914173 72.67025375 C135.2644961 141.17205153 135.2644961 141.17205153 114.86328125 160.64453125 C96.39015243 175.84138893 73.13752722 178.48069104 50 177 C45.8112532 176.38690351 41.99863573 175.3643794 38 174 C37.03449219 173.73316406 36.06898438 173.46632813 35.07421875 173.19140625 C17.22244566 167.98174484 2.99274991 155.73677508 -6.27734375 139.8046875 C-11.55098768 129.6554105 -13.1967911 120.45989746 -13.1875 109.0625 C-13.18669434 108.03487549 -13.18588867 107.00725098 -13.18505859 105.94848633 C-13.13001084 99.06805651 -12.65021271 92.50639736 -11.57421875 85.70703125 C-10.76991225 80.5146036 -10.24238527 75.29997364 -9.69775391 70.07495117 C-9.29770545 66.33655284 -8.81979643 62.67094683 -8 59 C-6.783125 58.7525 -5.56625 58.505 -4.3125 58.25 C0.2576969 57.10138414 3.53026947 55.28346015 6.14428711 51.22216797 C9.60749787 42.22868883 4.727247 28.21263104 2.9375 18.875 C2.51393218 16.63975764 2.09237042 14.40416815 1.67372131 12.16799927 C1.29817654 10.16575881 0.91671733 8.16463032 0.53491211 6.16357422 C0 3 0 3 0 0 Z " fill="#FDFCFC" transform="translate(361,610)"/>
<path d="M0 0 C1.27166016 -0.00773437 2.54332031 -0.01546875 3.85351562 -0.0234375 C10.69900543 -0.0092426 16.98394303 0.31171277 23.5625 2.25 C25.26986328 2.73146484 25.26986328 2.73146484 27.01171875 3.22265625 C46.9495925 9.93274886 61.50696098 22.67214912 71.21484375 41.4453125 C77.3914841 54.22144388 79.78608781 66.16396778 79.5625 80.25 C75.88925516 81.47441495 72.25896146 81.77586917 68.4296875 82.1640625 C62.33558246 82.81130059 56.26148894 83.52662157 50.1953125 84.3984375 C49.16440491 84.54636497 49.16440491 84.54636497 48.1126709 84.69728088 C46.69853607 84.90100819 45.28447417 85.10524232 43.8704834 85.30996704 C24.81402111 88.06006294 5.70892036 90.23377728 -13.4375 92.25 C-12.82179421 93.53904572 -12.19940433 94.82490021 -11.57421875 96.109375 C-11.22834717 96.82577148 -10.88247559 97.54216797 -10.52612305 98.28027344 C-7.48221732 103.78783822 -1.16078373 106.3052431 4.5625 108.25 C7.93933548 108.76369751 11.21525291 108.77651904 14.625 108.6875 C15.5425708 108.67138672 16.4601416 108.65527344 17.40551758 108.63867188 C38.01514412 108.05038909 55.80420935 101.59819914 71.5625 88.25 C73.80751892 91.61752838 74.31029892 94.47667594 74.9375 98.375 C75.0597998 99.09913086 75.18209961 99.82326172 75.30810547 100.56933594 C75.73631455 103.12800429 76.15073937 105.68863311 76.5625 108.25 C76.73072266 109.29446289 76.89894531 110.33892578 77.07226562 111.41503906 C77.78805057 115.8698243 78.50232843 120.32479877 79.20458984 124.78173828 C79.36652832 125.8076709 79.5284668 126.83360352 79.6953125 127.890625 C79.83855957 128.80360352 79.98180664 129.71658203 80.12939453 130.65722656 C80.55432465 133.20105849 81.04462712 135.7236274 81.5625 138.25 C82.17071902 141.44601881 82.3523323 144.06932398 81.5625 147.25 C69.94875677 163.17399845 41.06779957 171.65160795 22.828125 174.83984375 C16.22189781 175.66957324 9.58574617 175.64541705 2.9375 175.625 C2.18105194 175.62345917 1.42460388 175.62191833 0.64523315 175.62033081 C-21.83227655 175.51114303 -43.65131284 170.27178883 -60.4375 154.25 C-61.25863281 153.47140625 -62.07976563 152.6928125 -62.92578125 151.890625 C-65.15115254 149.71849226 -67.33314291 147.5394028 -69.4375 145.25 C-70.01628906 144.64671875 -70.59507812 144.0434375 -71.19140625 143.421875 C-74.16406615 138.24068721 -72.09687846 131.53926255 -70.96875 125.9609375 C-70.81291946 125.16092316 -70.65708893 124.36090881 -70.49653625 123.53665161 C-70.15894168 121.80524278 -69.81858045 120.07437157 -69.47573853 118.34399414 C-68.54580083 113.64627181 -67.63820722 108.94424182 -66.73046875 104.2421875 C-66.54103195 103.26260071 -66.35159515 102.28301392 -66.15641785 101.27374268 C-64.25815051 91.40976248 -62.49663292 81.52289225 -60.75668335 71.62994385 C-59.3266209 63.50159395 -57.88265723 55.37567836 -56.4375 47.25 C-56.30452515 46.50186035 -56.17155029 45.7537207 -56.0345459 44.98291016 C-55.2481636 40.56874767 -54.44281377 36.15847249 -53.625 31.75 C-53.44235596 30.72455078 -53.25971191 29.69910156 -53.0715332 28.64257812 C-51.86811805 22.27031422 -50.81400011 18.09803737 -45.50390625 13.96875 C-44.34513736 13.21483411 -43.17659369 12.47578358 -42 11.75 C-41.38108887 11.36126709 -40.76217773 10.97253418 -40.12451172 10.57202148 C-27.06965855 2.57588219 -15.15203806 -0.09187694 0 0 Z " fill="#FDFCFC" transform="translate(807.4375,419.75)"/>
<path d="M0 0 C5.84318095 0.69363457 11.63788638 1.55512252 17.44140625 2.5234375 C18.32674545 2.67027985 19.21208466 2.81712219 20.12425232 2.96841431 C21.99093091 3.27857493 23.85747049 3.58957322 25.72387695 3.90136719 C28.52962521 4.36951474 31.33606219 4.83335484 34.14257812 5.296875 C44.47052908 7.01243138 54.7517158 8.85590809 65 11 C64.17891287 19.07402349 64.17891287 19.07402349 63.48828125 22.6484375 C60.60145435 37.92200391 58.51681296 59.66616464 66.875 73.5625 C69.0594912 76.0682399 71.30761614 78.05550055 74 80 C74.04313828 79.42903595 74.08627655 78.8580719 74.13072205 78.26980591 C74.75502163 71.0615968 76.05550287 64.07545278 77.50390625 56.9921875 C77.7466478 55.7855545 77.98938934 54.57892151 78.23948669 53.33572388 C79.00928076 49.51454872 79.78578074 45.69477285 80.5625 41.875 C81.08888295 39.27103262 81.61373053 36.66675872 82.13867188 34.0625 C83.42068748 27.70729504 84.70819884 21.35322269 86 15 C97.83125506 16.16996235 109.44990759 17.82946275 121.125 20.0625 C123.27523197 20.46888704 125.42580698 20.87330835 127.57687378 21.2752533 C129.50134034 21.63554266 131.42478325 22.00128776 133.34814453 22.36743164 C137.22695301 23.03931242 141.09099744 23.54029181 145 24 C145.26770379 32.00533475 144.49864795 39.49603117 143.125 47.375 C142.75370398 49.59371616 142.38260777 51.81246577 142.01171875 54.03125 C141.83431152 55.07410156 141.6569043 56.11695313 141.47412109 57.19140625 C140.92999446 60.4146981 140.42485013 63.64266067 139.9375 66.875 C139.71126953 68.35033203 139.71126953 68.35033203 139.48046875 69.85546875 C139.12678178 72.17024931 138.77558543 74.48541075 138.42578125 76.80078125 C137.65045692 81.87267033 136.8276198 86.93641556 136 92 C135.89796265 92.63145935 135.79592529 93.2629187 135.6907959 93.91351318 C134.97919611 98.31652051 134.25048851 102.71627792 133.50500488 107.11367798 C133.25537075 108.59919352 133.01035177 110.08549341 132.77038574 111.57260132 C129.17153414 133.80082087 120.43470518 153.28918432 101.6875 166.8125 C81.48958016 180.07999376 58.31722897 184.21687096 34.56323242 179.9230957 C20.0187623 176.86990825 5.69390045 171.78749399 -7 164 C-6.61328125 163.55269531 -6.2265625 163.10539063 -5.828125 162.64453125 C2.2539943 153.26207098 4.78036344 148.64967596 4 136 C3.36276262 130.85667808 2.45413752 125.78053136 1.5 120.6875 C0.02627958 112.70152853 -1.35494811 105.13718534 -1 97 C-0.05125 97.845625 0.8975 98.69125 1.875 99.5625 C13.56444381 109.51495818 26.41163594 116.85875538 42 118 C42.97066406 118.07734375 43.94132813 118.1546875 44.94140625 118.234375 C54.86507307 118.66428114 64.18381807 116.39164997 72 110 C70.82566406 109.97421875 69.65132812 109.9484375 68.44140625 109.921875 C47.86490642 109.28229149 27.28481511 105.42898521 12.12109375 90.31640625 C11.42113281 89.55199219 10.72117187 88.78757812 10 88 C9.31035156 87.28714844 8.62070312 86.57429688 7.91015625 85.83984375 C2.40278883 79.27380039 2.07890793 72.83167566 1.45703125 64.6328125 C0.83752595 57.12033052 -1.06394266 49.38339743 -4.109375 42.48828125 C-8.65756031 29.78128983 -3.08262415 12.55655572 0 0 Z " fill="#FDFCFC" transform="translate(897,419)"/>
<path d="M0 0 C13.02940554 11.43237825 21.21010486 25.85953166 25 42.625 C25.1959375 43.43195312 25.391875 44.23890625 25.59375 45.0703125 C26.12071205 48.38409309 26.09384009 51.58411008 26.0625 54.9375 C26.05347656 56.19175781 26.04445313 57.44601562 26.03515625 58.73828125 C26.01775391 60.16720703 26.01775391 60.16720703 26 61.625 C20.27634714 63.44153552 14.63581421 64.35881882 8.6875 65.125 C7.7190918 65.25390625 6.75068359 65.3828125 5.75292969 65.515625 C-0.97183954 66.39843028 -7.70533109 67.14900228 -14.45043945 67.85546875 C-20.41974892 68.50489981 -26.30791941 69.47622666 -32.22021484 70.51513672 C-38.51058546 71.59873139 -44.81368636 72.34456169 -51.1640625 72.97851562 C-54.53069372 73.31947919 -57.72840091 73.77379209 -61 74.625 C-63.33300933 74.66388349 -65.66709801 74.6698635 -68 74.625 C-67.6390625 75.17929687 -67.278125 75.73359375 -66.90625 76.3046875 C-66.4421875 77.02914062 -65.978125 77.75359375 -65.5 78.5 C-65.0359375 79.21929688 -64.571875 79.93859375 -64.09375 80.6796875 C-63 82.625 -63 82.625 -63 84.625 C-62.29875 84.893125 -61.5975 85.16125 -60.875 85.4375 C-58 86.625 -58 86.625 -54.9375 88.1875 C-40.90545028 95.05424774 -22.53830898 90.07823119 -8.54296875 85.4921875 C1.61939573 81.85157769 10.9289684 76.82348764 19 69.625 C19.33 69.625 19.66 69.625 20 69.625 C20 84.805 20 99.985 20 115.625 C19.34 115.295 18.68 114.965 18 114.625 C17.40576172 112.40014648 17.40576172 112.40014648 16.9296875 109.49609375 C16.75566406 108.46162109 16.58164062 107.42714844 16.40234375 106.36132812 C16.22832031 105.27271484 16.05429687 104.18410156 15.875 103.0625 C15.60236328 101.4237793 15.60236328 101.4237793 15.32421875 99.75195312 C14.87489254 97.0441715 14.43387427 94.33529323 14 91.625 C12.35 91.295 10.7 90.965 9 90.625 C9.42007284 97.67780187 9.98161612 104.51743661 11.59765625 111.40625 C12.0640077 113.97797453 12.35635427 116.02151766 12 118.625 C-3.43898574 133.75792655 -33.16264766 140.04085363 -53.68017578 139.99560547 C-66.21563772 139.63830727 -78.27626062 136.69147851 -89.3359375 130.796875 C-92.13993381 129.56344554 -93.97484209 129.38298737 -97 129.625 C-97 130.945 -97 132.265 -97 133.625 C-73.99194731 145.54765904 -47.23405459 149.18249527 -22 141.625 C-9.30616133 137.42369914 4.54260893 132.04045248 15.28125 123.89453125 C17 122.625 17 122.625 19 122.625 C19 127.245 19 131.865 19 136.625 C3.20483763 145.96510916 -11.92708452 152.26337889 -30 155.625 C-31.75763672 155.9653125 -31.75763672 155.9653125 -33.55078125 156.3125 C-55.10790386 159.96023873 -79.19930023 158.46988574 -99 148.625 C-100.39895508 147.98256348 -100.39895508 147.98256348 -101.82617188 147.32714844 C-106.11689399 145.06111959 -109.28606467 143.33346923 -111.20507812 138.74121094 C-111.88529644 135.27251355 -112.24517188 131.9003191 -112.5 128.375 C-112.76837362 125.8501371 -113.03790757 123.32539727 -113.30859375 120.80078125 C-113.42315918 119.57182129 -113.53772461 118.34286133 -113.65576172 117.07666016 C-114.10854744 112.53660023 -114.80302661 108.05958481 -115.5625 103.5625 C-115.80438995 102.06135944 -116.04528885 100.56005882 -116.28515625 99.05859375 C-116.40262207 98.33140137 -116.52008789 97.60420898 -116.64111328 96.85498047 C-117.27013721 92.94647395 -117.88405011 89.03558415 -118.5 85.125 C-118.7499332 83.54165612 -118.99993308 81.95832276 -119.25 80.375 C-120.75 70.875 -120.75 70.875 -121.12548828 68.49633789 C-121.3736263 66.92517455 -121.62199578 65.35404776 -121.87060547 63.78295898 C-122.52607178 59.6387065 -123.17659865 55.4937517 -123.8203125 51.34765625 C-123.95501953 50.48398437 -124.08972656 49.6203125 -124.22851562 48.73046875 C-124.48650919 47.0757514 -124.74309443 45.42081365 -124.99804688 43.765625 C-125.53377692 40.33813667 -126.14416613 36.98476417 -127 33.625 C-127.80694684 28.88314744 -127.93311515 25.16962264 -125.390625 20.9609375 C-123.34715017 18.41811732 -121.21378393 16.0203683 -119 13.625 C-118.21753906 12.64789062 -117.43507813 11.67078125 -116.62890625 10.6640625 C-88.92683958 -22.72497243 -33.29842895 -25.94981015 0 0 Z " fill="#FDFCFC" transform="translate(792,627.375)"/>
<path d="M0 0 C1.12019531 0.00515625 2.24039063 0.0103125 3.39453125 0.015625 C26.71509946 0.23080902 47.9289525 4.85540205 68.5 16.25 C69.25925781 16.66121094 70.01851562 17.07242188 70.80078125 17.49609375 C72.75 18.6875 72.75 18.6875 75.5 21.25 C76.30734862 27.97484706 74.27589476 34.48651302 72.75 41 C72.19964543 43.40735212 71.65017207 45.81490586 71.1015625 48.22265625 C70.69405762 49.99987061 70.69405762 49.99987061 70.27832031 51.81298828 C69.17674925 56.67745424 68.14184933 61.55472257 67.125 66.4375 C66.95774414 67.23833008 66.79048828 68.03916016 66.61816406 68.86425781 C66.24404706 70.65921488 65.87177283 72.45455594 65.5 74.25 C61.72818073 73.65416127 58.8300082 72.56246394 55.46484375 70.7734375 C54.50006104 70.27038086 53.53527832 69.76732422 52.54125977 69.24902344 C51.51701904 68.7130957 50.49277832 68.17716797 49.4375 67.625 C41.62505878 63.63592106 33.83382758 59.93813285 25.5625 57 C24.7780249 56.71302246 23.9935498 56.42604492 23.18530273 56.13037109 C17.78768459 54.30123942 13.19287177 54.00125486 7.5 54.25 C9.55568587 58.18937046 11.35116485 60.1377515 15.21875 62.30078125 C16.6094873 63.09500488 16.6094873 63.09500488 18.02832031 63.90527344 C19.00897461 64.4521582 19.98962891 64.99904297 21 65.5625 C40.01967084 76.49313368 60.66516849 89.81505391 67.04638672 112.16357422 C67.78849814 115.57696721 67.68447672 119.02323315 67.6875 122.5 C67.69974609 123.22574219 67.71199219 123.95148438 67.72460938 124.69921875 C67.76022752 138.02040598 62.58800075 149.64601386 53.5 159.25 C38.26175242 173.23369306 17.53735497 176.07064364 -2.34423828 175.35058594 C-12.60081374 174.87202319 -22.27810474 173.28606165 -32.1875 170.5625 C-33.00573242 170.34319824 -33.82396484 170.12389648 -34.66699219 169.89794922 C-42.66958443 167.55792669 -48.7162358 164.1418821 -56.5 160.25 C-56.17 136.49 -55.84 112.73 -55.5 88.25 C-51.96397364 89.66441054 -49.14645835 90.94208934 -45.9453125 92.859375 C-45.0898584 93.36428467 -44.2344043 93.86919434 -43.35302734 94.3894043 C-42.00265381 95.18664917 -42.00265381 95.18664917 -40.625 96 C-23.71864922 105.89905487 -23.71864922 105.89905487 -4.8125 109.3125 C-3.63300781 109.30347656 -2.45351563 109.29445313 -1.23828125 109.28515625 C-0.33464844 109.27355469 0.56898438 109.26195312 1.5 109.25 C1.995 107.27 1.995 107.27 2.5 105.25 C-3.2411286 101.0088059 -9.34987492 97.73433958 -15.6875 94.5 C-32.91530356 85.59642124 -48.10212938 75.13843189 -54.60546875 55.99609375 C-57.42426995 44.19159442 -56.47378639 31.52002352 -50.1796875 21.0546875 C-41.93693007 9.20853884 -30.8312274 3.93315246 -17.03393555 0.85644531 C-11.34064692 -0.12055841 -5.76111074 -0.10607339 0 0 Z " fill="#FCFCFC" transform="translate(880.5,608.75)"/>
<path d="M0 0 C1.14739367 6.70640761 2.28576377 13.41430261 3.41796875 20.12329102 C3.80392786 22.40391433 4.19192687 24.68419341 4.58203125 26.96411133 C5.14343453 30.24731802 5.69741276 33.53170573 6.25 36.81640625 C6.42499023 37.83021866 6.59998047 38.84403107 6.78027344 39.88856506 C7.63309137 45.00265745 8.2024587 49.81515925 8 55 C3.6266647 55.84223216 -0.74890966 56.67221195 -5.125 57.5 C-6.3625 57.73847656 -7.6 57.97695313 -8.875 58.22265625 C-10.07382812 58.44824219 -11.27265625 58.67382812 -12.5078125 58.90625 C-14.15740967 59.22045898 -14.15740967 59.22045898 -15.84033203 59.54101562 C-18.94359741 59.99180676 -21.86931374 60.08249503 -25 60 C-24.76853271 61.26908203 -24.53706543 62.53816406 -24.29858398 63.84570312 C-12.71666269 127.40981084 -12.71666269 127.40981084 -7.875 156.25 C-7.67527588 157.43013672 -7.47555176 158.61027344 -7.26977539 159.82617188 C-7.09567139 160.87869141 -6.92156738 161.93121094 -6.7421875 163.015625 C-6.52344971 164.33481934 -6.52344971 164.33481934 -6.30029297 165.68066406 C-6 168 -6 168 -6 172 C-13.04206489 173.27126194 -20.08567135 174.53370514 -27.13037109 175.7902832 C-29.52232889 176.2179832 -31.9139385 176.64763558 -34.30517578 177.0793457 C-37.75982441 177.70268134 -41.21570103 178.31877887 -44.671875 178.93359375 C-46.25231598 179.22114784 -46.25231598 179.22114784 -47.86468506 179.51451111 C-54.89479511 180.7557005 -61.87752079 181.52517797 -69 182 C-71.75829427 167.75411442 -74.35006712 153.48729146 -76.8125 139.1875 C-77.5058504 135.17436495 -78.20021042 131.16140475 -78.89453125 127.1484375 C-79.06832306 126.14289322 -79.24211487 125.13734894 -79.4211731 124.10133362 C-80.62540748 117.14067745 -81.84531151 110.18290193 -83.07421875 103.2265625 C-83.40194827 101.36824746 -83.72966661 99.50993044 -84.05737305 97.65161133 C-84.52532269 94.99863512 -84.99407885 92.34581532 -85.46548462 89.69345093 C-85.89588501 87.27128208 -86.32324586 84.84859473 -86.75 82.42578125 C-86.87771286 81.71237579 -87.00542572 80.99897034 -87.13700867 80.26394653 C-87.62839969 77.46091312 -88 74.85297664 -88 72 C-99.22 73.65 -110.44 75.3 -122 77 C-125.40521806 58.68749401 -128.74546529 40.49113995 -131 22 C-116.26982178 19.06126556 -101.47832431 16.51337548 -86.6706543 14.00317383 C-84.85204585 13.69485333 -83.03344248 13.38650284 -81.21484375 13.078125 C-80.27521286 12.91882004 -79.33558197 12.75951508 -78.36747742 12.59538269 C-70.13955245 11.19821664 -61.91515387 9.78089627 -53.69140625 8.359375 C-52.36971547 8.13099106 -51.04802459 7.90260768 -49.72633362 7.67422485 C-44.47615618 6.76685048 -39.22605612 5.85903289 -33.97622681 4.949646 C-30.29419657 4.31191691 -26.61195824 3.67540118 -22.9296875 3.0390625 C-21.82722183 2.84769714 -20.72475616 2.65633179 -19.58888245 2.45916748 C-5.3447531 0 -5.3447531 0 0 0 Z " fill="#FCFCFC" transform="translate(347,601)"/>
<path d="M0 0 C5.08200418 27.0808508 9.85459299 54.21052603 14.51014709 81.36776733 C15.30289154 85.98532451 16.10333995 90.60107851 16.93164062 95.21240234 C17.07345764 96.00349899 17.21527466 96.79459564 17.36138916 97.60966492 C17.62185254 99.05671536 17.88450167 100.50337493 18.14984131 101.94953918 C18.64274587 104.68691207 19 107.21034733 19 110 C20.04865234 109.78794922 21.09730469 109.57589844 22.17773438 109.35742188 C26.09742747 108.56693945 30.01909182 107.78663897 33.94140625 107.00927734 C35.63336056 106.67250094 37.32478036 106.3330268 39.015625 105.99072266 C41.45694988 105.49698773 43.90008175 105.0132356 46.34375 104.53125 C47.08991577 104.37813354 47.83608154 104.22501709 48.6048584 104.06726074 C53.48816108 103.11693294 58.02440352 102.86233528 63 103 C64.84570312 114.07421875 64.84570312 114.07421875 66.69140625 125.1484375 C66.8242804 125.94519897 66.95715454 126.74196045 67.09405518 127.56286621 C67.35897118 129.15333695 67.62325587 130.74391297 67.88690186 132.33459473 C68.45730179 135.77216409 69.03649685 139.20698214 69.64160156 142.63867188 C69.82432617 143.68087891 70.00705078 144.72308594 70.1953125 145.796875 C70.35273926 146.67182617 70.51016602 147.54677734 70.67236328 148.44824219 C71.04118995 151.32080279 71.05439603 154.10697634 71 157 C70.44846756 157.09498779 69.89693512 157.18997559 69.32868958 157.2878418 C62.15631189 158.52340772 54.98435994 159.76143275 47.8125 161 C46.0695163 161.30079468 46.0695163 161.30079468 44.2913208 161.60766602 C31.48110569 163.81944469 18.67406958 166.04632346 5.87890625 168.34375 C4.8543483 168.52744141 3.82979034 168.71113281 2.77418518 168.90039062 C-2.06972571 169.76948667 -6.91276431 170.64306768 -11.75463867 171.5234375 C-13.50567386 171.83866807 -15.25673062 172.1537789 -17.0078125 172.46875 C-17.77552475 172.61002319 -18.543237 172.75129639 -19.33421326 172.89685059 C-24.86796573 173.88694403 -30.40103325 174.50658312 -36 175 C-36.09909668 174.27901123 -36.19819336 173.55802246 -36.30029297 172.81518555 C-42.78430434 126.17687393 -51.18258512 79.78048509 -59.5390625 33.4453125 C-59.65946396 32.7764653 -59.77986542 32.1076181 -59.90391541 31.41850281 C-60.45865169 28.33762907 -61.01617376 25.25732301 -61.5793457 22.17797852 C-61.76843506 21.13311279 -61.95752441 20.08824707 -62.15234375 19.01171875 C-62.31726318 18.10897217 -62.48218262 17.20622559 -62.65209961 16.27612305 C-63 14 -63 14 -63 11 C-50.4289984 8.36809979 -37.80840979 6.01614707 -25.17019653 3.73269653 C-23.39074678 3.411022 -21.61150999 3.08816713 -19.83248901 2.76412964 C-17.2952268 2.30259729 -14.75714143 1.84590073 -12.21875 1.390625 C-11.44966812 1.25018265 -10.68058624 1.1097403 -9.88819885 0.96504211 C-6.51316741 0.36517092 -3.4418238 0 0 0 Z " fill="#FCFCFC" transform="translate(221,426)"/>
<path d="M0 0 C1.67542976 0.28604898 3.34385343 0.61781233 5 1 C6.80411138 6.37745675 4.89856053 11.61889874 3.75 17 C3.42322266 18.6396875 3.42322266 18.6396875 3.08984375 20.3125 C2.75919922 21.8903125 2.75919922 21.8903125 2.421875 23.5 C2.22174805 24.4590625 2.02162109 25.418125 1.81542969 26.40625 C0.95820087 29.13295627 -0.15776384 30.83776296 -2 33 C-6.55540317 32.3404339 -10.47511562 30.58219469 -14.625 28.6875 C-27.9214514 22.75806294 -40.12259274 18.31062408 -55 20 C-57.58935956 21.4146994 -58.34388994 22.4851662 -60 25 C-60.495 25.495 -60.495 25.495 -61 26 C-61.56405927 29.45486304 -61.64345999 31.93932886 -59.7890625 34.99609375 C-54.25275607 41.66305431 -47.15618589 45.98472544 -39.9296875 50.6015625 C-31.95614444 55.70090078 -24.12863603 60.7321804 -17 67 C-16.35804688 67.55945313 -15.71609375 68.11890625 -15.0546875 68.6953125 C-6.56777479 76.5943871 -1.86318064 86.31109263 -1.375 97.9375 C-1.5406453 109.07990707 -6.70605803 118.86408195 -14.125 127.0625 C-27.13433334 138.73296541 -44.03573406 141.85503659 -60.98828125 141.3515625 C-72.66847853 140.71400215 -93.32149047 138.67850953 -102 130 C-101.625 127.875 -101.625 127.875 -101 126 C-96.94197337 124.34859462 -94.15078992 125.7811769 -90.1875 127.25 C-69.85181292 134.36947155 -47.82508566 136.3609878 -27.7265625 127.40234375 C-19.17893915 123.00607329 -14.31046342 115.95480264 -10.86328125 107.0703125 C-8.25724949 97.80180137 -9.70364914 90.10614023 -14.19921875 81.75390625 C-17.99325213 75.95175108 -22.03231741 71.86494284 -27.625 67.875 C-28.26526123 67.40980957 -28.90552246 66.94461914 -29.56518555 66.46533203 C-34.83565839 62.69451572 -40.29933256 59.27657975 -45.8125 55.875 C-64.06371372 44.56469561 -64.06371372 44.56469561 -68 35 C-68.86904818 29.50327029 -69.08289857 23.82223661 -66 19 C-61.86825726 14.33181552 -57.78579915 12.27921449 -51.5703125 11.65625 C-34.88775223 11.24686202 -20.04043847 17.46237086 -5 24 C-4.896875 22.80375 -4.79375 21.6075 -4.6875 20.375 C-2.74416517 2.74416517 -2.74416517 2.74416517 0 0 Z " fill="#AF3638" transform="translate(940,634)"/>
<path d="M0 0 C12.99835841 11.87064695 22.78956592 28.54324525 23.67285156 46.50878906 C24.27869109 70.23269575 19.63327019 90.60643818 3.02905273 108.3972168 C-6.11478218 117.79809101 -16.11985483 123.71752154 -28.30859375 128.34375 C-29.50379639 128.79886963 -29.50379639 128.79886963 -30.72314453 129.26318359 C-35.50480449 130.96941468 -39.35994163 131.66846374 -44.43359375 131.34375 C-44.76359375 129.69375 -45.09359375 128.04375 -45.43359375 126.34375 C-42.39584815 124.31858627 -40.23909685 123.65664544 -36.74609375 122.71875 C-19.1382927 117.41282781 -2.68285532 107.70988337 6.70166016 91.36669922 C7.8531452 89.21392282 8.94216019 87.04210571 10.00390625 84.84375 C10.33406738 84.16836182 10.66422852 83.49297363 11.00439453 82.79711914 C17.28186145 69.02512539 18.12212814 49.71206307 14.00390625 35.21875 C6.56485755 15.47665923 -6.1603192 1.94549793 -25.1484375 -6.85546875 C-39.56598769 -13.1351854 -53.91483578 -13.19116675 -69.43359375 -12.65625 C-69.76359375 -14.30625 -70.09359375 -15.95625 -70.43359375 -17.65625 C-50.60722612 -30.87382842 -15.46720108 -13.20102511 0 0 Z " fill="#AF3638" transform="translate(389.43359375,433.65625)"/>
<path d="M0 0 C3.11182788 0.23574454 4.65234626 0.68711163 6.9921875 2.79296875 C21.37662036 21.08686366 27.22348286 42.85543572 24.5390625 65.96875 C21.38533707 86.53663312 10.69934369 103.7961074 -6.03125 116.2578125 C-23.82944854 127.84426353 -45.12492308 133.2927541 -66.1550293 128.97216797 C-81.40109306 125.31794969 -100.92371457 116.21353214 -110 103 C-109.9375 100.0625 -109.9375 100.0625 -109 98 C-104.25062832 98.47236066 -102.04327896 100.4003499 -98.5625 103.5625 C-81.92938146 118.05126104 -63.7428513 122.7941614 -42 122 C-25.54531182 120.68792682 -9.77257878 111.52625897 1.4375 99.625 C14.89969345 83.11367726 18.9384659 64.9156515 17 44 C15.27607168 30.79158481 10.0614117 17.04965114 0.28515625 7.74609375 C-1.43735393 5.40578357 -1.30684497 3.83713579 -1 1 C-0.67 0.67 -0.34 0.34 0 0 Z " fill="#AE3537" transform="translate(541,453)"/>
<path d="M0 0 C5.41615348 3.42927531 9.23814604 8.32446013 11.21484375 14.40234375 C12.381701 22.39838658 10.83351884 28.79266086 6.21484375 35.40234375 C1.36254778 40.74097463 -3.36285595 43.40972605 -10.59765625 43.83984375 C-16.86751628 43.69989152 -20.89913054 41.20759012 -25.3203125 36.91015625 C-30.85797647 30.67826619 -31.24148528 24.91383701 -31.08984375 16.8515625 C-30.58722709 11.16168416 -29.09936142 7.55711516 -24.9140625 3.66015625 C-16.84913003 -2.71251251 -9.57327309 -4.598444 0 0 Z " fill="#030303" transform="translate(497.78515625,484.59765625)"/>
<path d="M0 0 C4.23266909 3.00591245 7.00264201 7.03262777 9.3046875 11.63671875 C10.56158695 28.49153435 10.56158695 28.49153435 5.3046875 34.63671875 C-1.03189863 40.42506906 -6.05866478 42.06315979 -14.6171875 41.98046875 C-20.62775877 41.30923744 -24.59487392 38.06643968 -28.5703125 33.69921875 C-33.15300379 27.09475189 -33.51248579 20.49813272 -32.6953125 12.63671875 C-30.69112308 5.4360382 -25.62937457 0.91433363 -19.3203125 -2.73828125 C-12.07436854 -4.463506 -6.55505505 -3.56341777 0 0 Z " fill="#020202" transform="translate(346.6953125,470.36328125)"/>
<path d="M0 0 C1.66611905 -0.042721 3.33382885 -0.04063832 5 0 C5.495 0.495 5.495 0.495 6 1 C5.93952507 9.25482748 4.60654498 17.57426431 3.5625 25.75 C3.44036133 26.71953613 3.31822266 27.68907227 3.19238281 28.68798828 C2.51085322 33.87026851 1.63320307 38.92638724 0.4440918 44.015625 C-0.15707272 46.70186206 -0.52579528 49.39550186 -0.875 52.125 C-1.78655156 58.70683289 -2.83072226 65.26066843 -3.9375 71.8125 C-4.17412354 73.26197021 -4.17412354 73.26197021 -4.41552734 74.74072266 C-7.69228496 93.86554973 -16.09430792 111.14953138 -31.9375 122.875 C-51.16301267 135.47102554 -74.32494084 138.99404511 -96.74462891 134.76831055 C-113.8473202 131.13958642 -113.8473202 131.13958642 -118 128 C-118.8046875 125.43359375 -118.8046875 125.43359375 -119 123 C-118.505 122.505 -118.505 122.505 -118 122 C-111.3862087 122.39682748 -105.2141366 124.2351589 -98.87890625 126.0625 C-79.23511542 130.81024401 -56.99392133 129.26475025 -39.453125 118.71875 C-24.65108857 108.34789645 -16.66437331 94.88907121 -13.05078125 77.375 C-12.87930573 76.55109268 -12.7078302 75.72718536 -12.53115845 74.87831116 C-10.61781572 65.45253449 -9.23414018 55.95596987 -7.875 46.4375 C-7.3758876 42.97735046 -6.87312113 39.51775234 -6.3671875 36.05859375 C-6.18919868 34.83842056 -6.18919868 34.83842056 -6.00761414 33.59359741 C-5.28481568 28.71009761 -4.43751605 23.87712693 -3.41113281 19.04711914 C-2.74222812 15.71649807 -2.34863151 12.37196936 -1.9375 9 C-1.11066667 2.22133333 -1.11066667 2.22133333 0 0 Z " fill="#AF3739" transform="translate(1025,452)"/>
<path d="M0 0 C1.67542976 0.28604898 3.34385343 0.61781233 5 1 C5.47955509 3.12374396 5.95661113 5.24807945 6.421875 7.375 C6.79417479 9.06544229 7.17866023 10.75327016 7.578125 12.4375 C8.98078895 18.68937362 9.21884176 24.60495755 9 31 C1.54508295 32.85714365 -5.8961844 34.37537698 -13.4765625 35.60546875 C-14.30067627 35.74094116 -15.12479004 35.87641357 -15.97387695 36.01599121 C-17.98227744 36.3458699 -19.9910959 36.67320223 -22 37 C-17.70624845 62.5623183 -13.32510714 88.10344001 -8.61523438 113.59277344 C-3.65144176 140.50599794 -3.65144176 140.50599794 -4 148 C-11.15582978 150.56643684 -18.29936119 152.26689286 -25.75 153.75 C-26.85988281 153.98332031 -27.96976562 154.21664062 -29.11328125 154.45703125 C-30.18449219 154.67230469 -31.25570313 154.88757813 -32.359375 155.109375 C-33.32327148 155.30499023 -34.28716797 155.50060547 -35.28027344 155.70214844 C-38.11668114 156.01277837 -40.25177037 155.71111535 -43 155 C-43.625 153.125 -43.625 153.125 -44 151 C-41.38100449 148.38100449 -39.39980506 148.25367555 -35.78515625 147.4921875 C-34.54185547 147.22792969 -33.29855469 146.96367188 -32.01757812 146.69140625 C-31.36861572 146.55750488 -30.71965332 146.42360352 -30.05102539 146.28564453 C-28.07192568 145.87694647 -26.09546393 145.45705414 -24.11914062 145.03515625 C-14.43961669 143 -14.43961669 143 -11 143 C-11.24379395 141.81873535 -11.48758789 140.6374707 -11.73876953 139.42041016 C-14.38977711 126.44719257 -16.69197069 113.4340997 -18.875 100.375 C-19.56985405 96.24319186 -20.26699331 92.11177177 -20.96484375 87.98046875 C-21.13659622 86.96255753 -21.30834869 85.9446463 -21.48530579 84.89588928 C-22.56672275 78.50471788 -23.67605462 72.1191935 -24.81640625 65.73828125 C-24.95606812 64.95578003 -25.09572998 64.17327881 -25.23962402 63.36706543 C-25.88259914 59.77087066 -26.53054605 56.17565494 -27.18505859 52.58154297 C-28.41525774 45.73182912 -29.46558606 38.94129677 -30 32 C-24.00180158 29.66736728 -18.07596882 28.36597839 -11.75 27.3125 C-10.96963379 27.18125732 -10.18926758 27.05001465 -9.38525391 26.91479492 C-5.53354882 26.29873696 -1.91089894 25.93998294 2 26 C1.87359131 25.38479492 1.74718262 24.76958984 1.61694336 24.13574219 C1.04817772 21.34223092 0.49271562 18.54623446 -0.0625 15.75 C-0.26166016 14.78191406 -0.46082031 13.81382812 -0.66601562 12.81640625 C-0.94155273 11.41455078 -0.94155273 11.41455078 -1.22265625 9.984375 C-1.39547119 9.12553711 -1.56828613 8.26669922 -1.74633789 7.38183594 C-2.00768274 4.92786059 -1.80866885 3.31712865 -1 1 C-0.67 0.67 -0.34 0.34 0 0 Z " fill="#AE4547" transform="translate(331,615)"/>
<path d="M0 0 C1.65 0.33 3.3 0.66 5 1 C5.12719423 6.53004933 4.72363824 11.67875181 3.71484375 17.125 C3.57865631 17.89188141 3.44246887 18.65876282 3.30215454 19.44888306 C2.85354863 21.96709116 2.39545612 24.4834771 1.9375 27 C1.61702538 28.79072206 1.29729638 30.58157769 0.97827148 32.37255859 C0.31621961 36.0858141 -0.34901462 39.79847795 -1.01660156 43.51074219 C-2.37360893 51.06903097 -3.69421899 58.63362024 -5.01379395 66.19851685 C-5.43869063 68.6318185 -5.86511844 71.06484719 -6.29199219 73.49780273 C-7.74101899 81.76114012 -9.1790406 90.02623548 -10.59867859 98.29467773 C-11.32429046 102.52013987 -12.05254804 106.74514466 -12.78079224 110.97015381 C-13.13219999 113.01389756 -13.48222093 115.0578803 -13.83078003 117.10211182 C-14.3173457 119.95539528 -14.8086092 122.80783531 -15.30078125 125.66015625 C-15.44321259 126.50315781 -15.58564392 127.34615936 -15.73239136 128.21470642 C-17.94280346 140.94280346 -17.94280346 140.94280346 -20 143 C-29.32390199 142.930068 -38.64542553 141.01754861 -47.80395508 139.41601562 C-50.22035896 138.99426491 -52.63833899 138.58258968 -55.05664062 138.171875 C-56.5938512 137.90683628 -58.13096456 137.64123295 -59.66796875 137.375 C-60.39074509 137.25205566 -61.11352142 137.12911133 -61.85820007 137.00244141 C-66.88467597 136.11532403 -66.88467597 136.11532403 -68 135 C-68.125 132.5 -68.125 132.5 -68 130 C-67.67 129.67 -67.34 129.34 -67 129 C-59.35997332 129.60184018 -51.80137214 130.92843237 -44.24121094 132.15673828 C-42.10927597 132.50255053 -39.97656581 132.84326119 -37.84375 133.18359375 C-36.48172181 133.40334217 -35.11974084 133.62338356 -33.7578125 133.84375 C-32.5320752 134.04162109 -31.30633789 134.23949219 -30.04345703 134.44335938 C-27 135 -27 135 -24 136 C-23.94893097 135.2655365 -23.89786194 134.531073 -23.84524536 133.77435303 C-23.30689384 126.64738799 -22.40887754 119.67864913 -21.1796875 112.640625 C-21.00029633 111.58944992 -20.82090515 110.53827484 -20.63607788 109.45524597 C-20.05404121 106.05261932 -19.46468471 102.65130879 -18.875 99.25 C-18.46675052 96.87384316 -18.05887697 94.4976217 -17.65136719 92.12133789 C-16.44181593 85.07957351 -15.22207974 78.03959934 -14 71 C-13.65722064 69.02262472 -13.31444686 67.04524848 -12.97167969 65.06787109 C-11.3836798 55.915486 -9.78231868 46.76556017 -8.16453552 37.61839294 C-7.3929328 33.24981736 -6.6329899 28.87944505 -5.88467407 24.50682068 C-5.53777336 22.48272954 -5.18792479 20.45917307 -4.83691406 18.43579102 C-4.41800916 16.01795381 -4.00421443 13.599223 -3.59667969 11.17944336 C-3.32259277 9.61141968 -3.32259277 9.61141968 -3.04296875 8.01171875 C-2.88852295 7.10897217 -2.73407715 6.20622559 -2.57495117 5.27612305 C-2 3 -2 3 0 0 Z " fill="#AF3638" transform="translate(724,444)"/>
<path d="M0 0 C2.375 0.1875 2.375 0.1875 5 1 C6.65866175 4.3481914 7.42125342 7.64328298 8.03775024 11.31069946 C8.30692009 12.88743942 8.30692009 12.88743942 8.58152771 14.49603271 C8.77070267 15.6389679 8.95987762 16.78190308 9.15478516 17.95947266 C9.35990219 19.17148346 9.56501923 20.38349426 9.77635193 21.63223267 C10.33638521 24.95004748 10.89126778 28.26863796 11.44329882 31.58778811 C11.90595166 34.36596959 12.37194785 37.14358623 12.83786905 39.92122114 C13.9382199 46.48192339 15.032469 53.04362375 16.12304688 59.60595703 C17.24459546 66.35393115 18.37683837 73.10004882 19.51435435 79.845348 C20.49325156 85.65256755 21.46516088 91.4609282 22.43164861 97.27022588 C23.00775726 100.73254415 23.58646248 104.19437481 24.17201614 107.65510941 C24.82613627 111.5231345 25.46567424 115.3934964 26.10400391 119.26416016 C26.29722733 120.39494995 26.49045074 121.52573975 26.68952942 122.6907959 C27.80143978 129.5237117 28.23553315 136.07950937 28 143 C20.16366179 145.93540818 12.30755007 147.29924505 4.0625 148.625 C1.44849386 149.05048435 -1.16449129 149.48147988 -3.77734375 149.9140625 C-4.92452881 150.0992041 -6.07171387 150.2843457 -7.25366211 150.47509766 C-9.94924154 150.86155759 -9.94924154 150.86155759 -12 152 C-15.0625 152.125 -15.0625 152.125 -18 152 C-19 151 -19 151 -19.0625 148.4375 C-19.0315625 147.2309375 -19.0315625 147.2309375 -19 146 C-11.16463569 143.07353863 -3.30025707 141.6656998 4.9375 140.3125 C6.27679743 140.08590456 7.61599115 139.85869525 8.95507812 139.63085938 C18.65596505 138 18.65596505 138 21 138 C20.8856961 137.31916257 20.77139219 136.63832514 20.65362453 135.93685627 C17.87315563 119.37157433 15.10253114 102.80467913 12.34285641 86.23592091 C11.0080621 78.22343961 9.66994021 70.21154066 8.32397461 62.20092773 C7.15085968 55.21899657 5.98399763 48.23605421 4.82463652 41.25182551 C4.21052886 37.55366669 3.59329974 33.85609032 2.96858025 30.15970802 C2.27135122 26.03358448 1.5880924 21.90526508 0.90600586 17.77661133 C0.59203857 15.93810356 0.59203857 15.93810356 0.27172852 14.06245422 C0.08799179 12.93649841 -0.09574493 11.8105426 -0.28504944 10.65046692 C-0.4482068 9.67428815 -0.61136415 8.69810938 -0.77946568 7.69234943 C-1.00821701 4.89968433 -0.6861639 2.70448001 0 0 Z " fill="#AF3739" transform="translate(627,611)"/>
<path d="M0 0 C4.875 0.875 4.875 0.875 6 2 C5.79420108 14.21789065 3.98168812 26.54658842 2.6875 38.6875 C2.5770636 39.72680664 2.4666272 40.76611328 2.35284424 41.83691406 C0.63057928 57.96146067 -1.2901682 74.00739942 -4 90 C-4.12584473 90.77585449 -4.25168945 91.55170898 -4.38134766 92.35107422 C-6.99370889 108.27897302 -12.20229978 121.68312952 -25.56640625 131.44140625 C-29.84993106 134.18478731 -34.25129361 136.19511815 -39 138 C-40.01449219 138.39445313 -41.02898437 138.78890625 -42.07421875 139.1953125 C-52.06336988 142.57625596 -63.52246563 143.57507149 -74 142 C-74.66 141.34 -75.32 140.68 -76 140 C-75.625 137.375 -75.625 137.375 -75 135 C-74.14003418 134.97812622 -74.14003418 134.97812622 -73.26269531 134.95581055 C-54.67981655 134.42843844 -37.03595869 132.90037663 -22.96484375 119.2109375 C-14.43142059 109.60871581 -13.21932181 98.29024906 -11.43579102 85.99365234 C-10.98440056 82.89284013 -10.49924717 79.79844599 -10.01171875 76.703125 C-8.90702478 69.52527226 -7.96507098 62.33077894 -7.0625 55.125 C-6.97695862 54.44744659 -6.89141724 53.76989319 -6.80328369 53.07180786 C-5.80664899 45.14751255 -4.89280182 37.2213725 -4.14453125 29.26953125 C-4.04510979 28.21327545 -4.04510979 28.21327545 -3.94367981 27.13568115 C-3.62951506 23.76276019 -3.3281018 20.38938794 -3.03930664 17.01416016 C-2.51166395 11.11005419 -1.95135906 5.61224208 0 0 Z " fill="#AF3637" transform="translate(490,634)"/>
<path d="M0 0 C2.4375 0.125 2.4375 0.125 5 1 C7.47318545 5.52811159 7.84896967 10.71375945 8.5625 15.75 C8.81012562 17.47449025 9.06123761 19.19848473 9.31640625 20.921875 C9.42412354 21.68081055 9.53184082 22.43974609 9.64282227 23.22167969 C9.83265157 25.01732462 9.83265157 25.01732462 11 26 C11.08669432 27.4887186 11.10703494 28.981445 11.09765625 30.47265625 C11.09282227 31.82133789 11.09282227 31.82133789 11.08789062 33.19726562 C11.07532227 34.61555664 11.07532227 34.61555664 11.0625 36.0625 C11.05798828 37.01189453 11.05347656 37.96128906 11.04882812 38.93945312 C11.0370011 41.29303065 11.02052025 43.64648477 11 46 C10.67 46 10.34 46 10 46 C10 41.71 10 37.42 10 33 C9.09121094 33.56847656 8.18242188 34.13695312 7.24609375 34.72265625 C-19.98212696 51.54267001 -50.80531032 61.90075167 -83.125 54.5 C-91.6422983 52.33591414 -99.35467766 48.23939812 -107 44 C-106.67 42.35 -106.34 40.7 -106 39 C-101.48266625 39.30115558 -98.28939435 40.25814344 -94.25 42.3125 C-72.32246295 52.65965054 -47.13249071 50.38867319 -24.84765625 42.5234375 C-15.48294255 38.92030829 -6.23246786 34.76658045 2 29 C1.49107027 23.91070273 0.83191743 18.9116485 -0.0625 13.875 C-0.81348417 9.48678651 -1.29624952 5.44374284 -1 1 C-0.67 0.67 -0.34 0.34 0 0 Z " fill="#AE3739" transform="translate(801,717)"/>
<path d="M0 0 C2.5 0.3125 2.5 0.3125 5 1 C6.92082315 4.84164631 6.99178664 9.40335951 7.5625 13.625 C7.70107422 14.59824219 7.83964844 15.57148437 7.98242188 16.57421875 C8.36569031 19.37981921 8.70033869 22.18431449 9 25 C9.08749512 25.77698242 9.17499023 26.55396484 9.26513672 27.35449219 C9.40234375 29.4609375 9.40234375 29.4609375 9 33 C6.98046875 35.2265625 6.98046875 35.2265625 4 37 C3.43361816 37.34514648 2.86723633 37.69029297 2.28369141 38.04589844 C-8.2770003 44.31292652 -19.22477344 48.63484833 -31 52 C-32.12277344 52.3403125 -33.24554687 52.680625 -34.40234375 53.03125 C-58.65507457 59.38105589 -82.66244182 54.1766332 -104 42 C-105 41 -105 41 -105.0625 38.4375 C-105.041875 37.633125 -105.02125 36.82875 -105 36 C-101.40349317 34.70912327 -100.07988406 34.96545795 -96.50390625 36.51171875 C-95.18553233 37.22863492 -93.87194961 37.95441045 -92.5625 38.6875 C-71.02870758 49.90383108 -48.23649789 49.3915195 -25.30175781 42.2487793 C-17.4621133 39.67576304 -10.26581066 35.86315989 -3 32 C-1.66921926 31.3282524 -0.33736131 30.65854913 1 30 C0.85805236 27.93722893 0.71127784 25.87478969 0.5625 23.8125 C0.48128906 22.66394531 0.40007812 21.51539063 0.31640625 20.33203125 C0.07099808 17.11170523 0.07099808 17.11170523 -0.52734375 14.43359375 C-1.06582211 11.66109771 -1.13262827 9.07245819 -1.125 6.25 C-1.12886719 4.80367187 -1.12886719 4.80367187 -1.1328125 3.328125 C-1 1 -1 1 0 0 Z " fill="#AF3739" transform="translate(867,529)"/>
<path d="M0 0 C2.0625 0.4375 2.0625 0.4375 4 1 C5.19963173 5.37106588 4.77302845 9.19818872 4.109375 13.60546875 C3.89332323 15.14524262 3.67742846 16.68503853 3.46166992 18.22485352 C3.34536224 19.03334747 3.22905457 19.84184143 3.10922241 20.67483521 C-0.17698952 43.66100967 -3.07354647 66.88036114 -3.4375 90.125 C-3.45981689 90.92945557 -3.48213379 91.73391113 -3.50512695 92.56274414 C-3.48285581 98.12872501 -2.11672839 102.3644075 1 107 C2.74547715 108.81098126 2.74547715 108.81098126 4.75 109.8125 C5.77867187 110.38484375 5.77867187 110.38484375 6.828125 110.96875 C10.15687484 112.54930748 13.50997816 113.81588545 17 115 C17.042721 116.66611905 17.04063832 118.33382885 17 120 C16.67 120.33 16.34 120.66 16 121 C8.39627579 120.72843842 2.56408046 118.29304772 -3.0546875 113.1015625 C-10.60617523 104.92339529 -10.4001194 96.46290198 -10.375 85.875 C-10.37545319 85.13535004 -10.37590637 84.39570007 -10.37637329 83.63363647 C-10.34610912 66.59399735 -8.46587787 49.8600008 -6.25640869 32.98596191 C-5.86425886 29.94864434 -5.5013464 26.90791396 -5.13671875 23.8671875 C-4.88416866 21.80712496 -4.63037012 19.74721487 -4.375 17.6875 C-4.26438232 16.78749268 -4.15376465 15.88748535 -4.03979492 14.96020508 C-2.39403609 2.39403609 -2.39403609 2.39403609 0 0 Z " fill="#AE3436" transform="translate(407,622)"/>
<path d="M0 0 C1 1 1 1 1.0625 3.5625 C1.041875 4.366875 1.02125 5.17125 1 6 C0.05125 6.226875 -0.8975 6.45375 -1.875 6.6875 C-12.4639535 9.72213911 -20.24866588 14.83425783 -25.70703125 24.41796875 C-30.09237678 33.17541103 -30.087706 42.34120251 -27.0390625 51.515625 C-23.11882251 60.88883039 -16.43468628 68.10306436 -7 72 C-2.1724437 73.21716922 2.41263763 72.99221216 7.35546875 72.83984375 C10 73 10 73 12 75 C11.46428571 78.53571429 11.46428571 78.53571429 10 80 C-3.31282184 81.37664903 -12.39602158 79.29183438 -23.3984375 71.24609375 C-31.35917827 64.1851302 -36.41613733 53.14814731 -37.2734375 42.65234375 C-37.61135155 30.29248762 -34.46326303 20.25150812 -26 11 C-18.67631072 3.57267361 -10.5426487 -0.4792113 0 0 Z " fill="#AE3436" transform="translate(332,450)"/>
<path d="M0 0 C1.17077232 0.94920681 2.31920692 1.9269942 3.4375 2.9375 C4.00984375 3.43765625 4.5821875 3.9378125 5.171875 4.453125 C5.58953125 4.94296875 6.0071875 5.4328125 6.4375 5.9375 C6.125 8.625 6.125 8.625 5.4375 10.9375 C3.6640625 11.63671875 3.6640625 11.63671875 1.4375 11.9375 C-0.3515625 10.64453125 -0.3515625 10.64453125 -2.1875 8.75 C-9.29347943 2.20674085 -16.6455569 0.15982742 -26.25 0.48828125 C-34.68412892 1.63206053 -42.9928764 5.37075708 -48.5625 11.9375 C-54.92376012 20.98495349 -57.68507389 28.82128055 -56.5625 39.9375 C-55.26189408 45.16674028 -53.64080526 49.59690428 -50.25 53.8125 C-48.5625 55.9375 -48.5625 55.9375 -48.8125 58.75 C-49.06 59.471875 -49.3075 60.19375 -49.5625 60.9375 C-52.36308504 60.9375 -54.05345365 60.4244139 -56.08984375 58.4765625 C-62.8563019 50.04001162 -65.29732544 41.09967604 -64.9453125 30.36328125 C-63.66906235 18.9421447 -57.71960136 8.85601442 -48.91015625 1.57421875 C-34.03522387 -8.7961584 -15.28290611 -11.18329444 0 0 Z " fill="#AE3536" transform="translate(512.5625,472.0625)"/>
<path d="M0 0 C1.65 0 3.3 0 5 0 C6.50363139 5.00774628 7.67288572 9.98552596 8.625 15.125 C8.82609375 16.15947266 8.82609375 16.15947266 9.03125 17.21484375 C10.36349369 24.32467489 10.36349369 24.32467489 10 28 C7.70610851 30.29389149 6.81507793 30.42550958 3.69921875 31.0078125 C2.29542969 31.27513184 2.29542969 31.27513184 0.86328125 31.54785156 C-0.18472656 31.73831055 -1.23273438 31.92876953 -2.3125 32.125 C-3.4159375 32.33092773 -4.519375 32.53685547 -5.65625 32.74902344 C-8.97212591 33.3630419 -12.28948882 33.96755815 -15.60797119 34.56726074 C-18.23168043 35.04191305 -20.85486064 35.51942906 -23.47802734 35.99707031 C-28.47498963 36.90582738 -33.47309065 37.80809615 -38.47201538 38.70599365 C-40.47920023 39.06660357 -42.48622161 39.42812463 -44.49307251 39.79058838 C-47.35925235 40.30718165 -50.2263442 40.8183857 -53.09375 41.328125 C-53.94406296 41.48209747 -54.79437592 41.63606995 -55.67045593 41.79470825 C-59.93183896 42.54635709 -64.1987174 43.20367513 -68.49414062 43.72949219 C-69.30967407 43.83042175 -70.12520752 43.93135132 -70.9654541 44.03533936 C-73 44 -73 44 -75 42 C-75 40 -75 40 -74 38 C-68.66245153 35.77797253 -62.95445571 34.95690291 -57.29296875 33.94140625 C-56.25417068 33.75158676 -55.21537262 33.56176727 -54.14509583 33.36619568 C-50.82662556 32.76087914 -47.50708815 32.16165224 -44.1875 31.5625 C-41.99797593 31.16380087 -39.80852207 30.76471595 -37.61914062 30.36523438 C-32.37264807 29.40927573 -27.12468116 28.4617629 -21.87591553 27.51837158 C-19.17518295 27.03157598 -16.4754411 26.53962415 -13.77587891 26.04638672 C-12.24254578 25.76902458 -10.70918222 25.4918306 -9.17578125 25.21484375 C-8.49533249 25.08928604 -7.81488373 24.96372833 -7.11381531 24.83436584 C-3.98586192 24.27410259 -1.19920611 24 2 24 C1.85582642 23.17592651 1.85582642 23.17592651 1.70874023 22.33520508 C1.27569459 19.82914167 0.85648983 17.32095004 0.4375 14.8125 C0.28603516 13.94818359 0.13457031 13.08386719 -0.02148438 12.19335938 C-1.32964778 4.25311176 -1.32964778 4.25311176 0 0 Z " fill="#AF3739" transform="translate(269,544)"/>
<path d="M0 0 C4.70588235 0.70588235 4.70588235 0.70588235 6 2 C6.35136368 3.62257933 6.64729649 5.25720737 6.92041016 6.89477539 C7.0981749 7.94815094 7.27593964 9.00152649 7.45909119 10.08682251 C7.74617699 11.82468521 7.74617699 11.82468521 8.0390625 13.59765625 C8.24096695 14.79893158 8.4428714 16.00020691 8.65089417 17.23788452 C9.19911556 20.5027026 9.74394451 23.76805158 10.2871666 27.03370285 C11.18617023 32.4325059 12.09260113 37.83007048 12.99897575 43.22764015 C13.22675536 44.58427046 13.45437123 45.94092827 13.68182564 47.29761314 C15.15830386 56.10032615 16.67414222 64.89487682 18.25390625 73.6796875 C18.50584747 75.08646004 18.50584747 75.08646004 18.76287842 76.52165222 C19.53387352 80.82177023 20.31339848 85.12006541 21.10595703 89.41625977 C21.37696789 90.92197655 21.64765992 92.42775078 21.91796875 93.93359375 C22.27024536 95.8525647 22.27024536 95.8525647 22.62963867 97.81030273 C22.95982389 100.65398754 22.96602591 102.34789531 22 105 C19.525 105.495 19.525 105.495 17 106 C15.5719389 101.23826696 14.46712025 96.54977721 13.58984375 91.6484375 C13.39746628 90.57995323 13.39746628 90.57995323 13.20120239 89.48988342 C12.77585547 87.11896934 12.35633032 84.74707338 11.9375 82.375 C11.63794205 80.69018509 11.33838143 79.00537064 11.03881836 77.32055664 C10.01594063 71.54876747 9.0064449 65.77467476 8 60 C7.80458618 58.87926086 7.60917236 57.75852173 7.40783691 56.6038208 C6.15471142 49.40788032 4.91071102 42.21042423 3.67605591 35.0112915 C3.26797939 32.63435996 2.85837951 30.25768943 2.44723511 27.88128662 C1.8673326 24.52456304 1.29409052 21.16676794 0.72265625 17.80859375 C0.54799835 16.8039357 0.37334045 15.79927765 0.19338989 14.76417542 C-1.33502802 5.69952501 -1.33502802 5.69952501 -1 1 C-0.67 0.67 -0.34 0.34 0 0 Z " fill="#AF3739" transform="translate(206,439)"/>
<path d="M0 0 C18.89018603 0 37.77465554 7.0189216 51.4375 20.3125 C60.83099956 30.13531855 68.72134616 44.10730779 69.6875 57.875 C69.4375 60.3125 69.4375 60.3125 68.4375 61.3125 C66.77132885 61.35313832 65.10361905 61.355221 63.4375 61.3125 C63.14617187 60.29671875 62.85484375 59.2809375 62.5546875 58.234375 C57.78032536 41.9975816 51.37818231 27.24274442 36.5 17.875 C34.83327141 16.98097944 33.1443291 16.12735666 31.4375 15.3125 C30.4784375 14.85230469 29.519375 14.39210938 28.53125 13.91796875 C18.42601398 9.3992614 8.69409817 8.10741258 -2.25683594 7.74121094 C-7.35048718 7.52451282 -7.35048718 7.52451282 -9.5625 5.3125 C-8.64004524 -0.77570145 -5.40999532 0.0470895 0 0 Z " fill="#AF3739" transform="translate(804.5625,430.6875)"/>
<path d="M0 0 C1.9375 0.125 1.9375 0.125 4 1 C6.07173075 5.03721891 6.53856316 9.17298905 7 13.625 C7.48591728 18.15122949 8.08825106 22.61112985 8.93359375 27.0859375 C10.47513346 35.33081763 11.48636224 43.6521946 12.58789062 51.96484375 C12.75611328 53.21394531 12.92433594 54.46304688 13.09765625 55.75 C13.32207397 57.44382812 13.32207397 57.44382812 13.55102539 59.171875 C13.9317137 62.0677621 13.9317137 62.0677621 15 65 C15.06740865 66.56118428 15.08514456 68.1250252 15.0625 69.6875 C15.05347656 70.49574219 15.04445313 71.30398438 15.03515625 72.13671875 C15.02355469 72.75160156 15.01195312 73.36648438 15 74 C9.34227098 76.14337174 3.56208443 77.10267041 -2.375 78.125 C-3.37789062 78.30675781 -4.38078125 78.48851562 -5.4140625 78.67578125 C-11.03335157 79.65400827 -16.29752375 80.20414593 -22 80 C-22.625 77.625 -22.625 77.625 -23 75 C-20.47017148 72.47017148 -18.98402853 72.47449862 -15.4765625 71.9296875 C-13.82140625 71.66865234 -13.82140625 71.66865234 -12.1328125 71.40234375 C-10.39644531 71.14130859 -10.39644531 71.14130859 -8.625 70.875 C-7.47515625 70.69324219 -6.3253125 70.51148438 -5.140625 70.32421875 C-0.69725893 69.63544522 3.49564296 69 8 69 C7.80664062 68.11441406 7.61328125 67.22882813 7.4140625 66.31640625 C5.79246737 58.60178786 4.55704473 50.96025214 3.69750977 43.12475586 C3.02592971 37.03756529 2.05168035 31.0329501 1 25 C0.42379941 21.68968503 -0.13571627 18.37696667 -0.6875 15.0625 C-0.8311499 14.24475098 -0.9747998 13.42700195 -1.12280273 12.58447266 C-1.79949786 8.4750259 -2.31070902 5.05922611 -1 1 C-0.67 0.67 -0.34 0.34 0 0 Z " fill="#AF3638" transform="translate(545,697)"/>
<path d="M0 0 C16.04483369 8.55603871 25.20527179 22.01914174 30.97265625 38.81640625 C31.69524737 41.65956628 31.91821782 43.96103323 31.75 46.875 C30.1 47.205 28.45 47.535 26.75 47.875 C26.38648438 46.91980469 26.02296875 45.96460938 25.6484375 44.98046875 C18.76848683 27.16659984 11.52345305 13.60918884 -6.56640625 5.36328125 C-17.04616868 1.12523132 -26.22492202 0.7392149 -37.35546875 1.00195312 C-38.64517578 1.01838867 -38.64517578 1.01838867 -39.9609375 1.03515625 C-40.73743652 1.05199463 -41.51393555 1.06883301 -42.31396484 1.08618164 C-44.25 0.875 -44.25 0.875 -46.25 -1.125 C-45.875 -3.75 -45.875 -3.75 -45.25 -6.125 C-30.79456199 -10.94347934 -13.20420714 -6.05789547 0 0 Z " fill="#AF3638" transform="translate(772.25,628.125)"/>
<path d="M0 0 C2.625 0.375 2.625 0.375 5 1 C5.1850595 6.44757672 4.51811956 11.30430163 3.390625 16.625 C3.22376694 17.44172684 3.05690887 18.25845367 2.88499451 19.09992981 C2.34597972 21.73455642 1.79811143 24.36725236 1.25 27 C0.50732459 30.60718181 -0.23013331 34.2154067 -0.96484375 37.82421875 C-1.23490486 39.148451 -1.23490486 39.148451 -1.51042175 40.49943542 C-3.1274246 48.49456686 -4.53539321 56.51624702 -5.71972656 64.58789062 C-5.84959961 65.41095703 -5.97947266 66.23402344 -6.11328125 67.08203125 C-6.21423096 67.77530518 -6.31518066 68.4685791 -6.41918945 69.18286133 C-7.14698066 71.45984743 -8.15553785 72.50698733 -10 74 C-11.91796875 74.1796875 -11.91796875 74.1796875 -14.1875 73.875 C-15.49074219 73.70097656 -15.49074219 73.70097656 -16.8203125 73.5234375 C-35.56176471 70.43823529 -35.56176471 70.43823529 -37 69 C-37.04063832 67.33382885 -37.042721 65.66611905 -37 64 C-31.93182839 62.41554055 -27.28454402 63.544282 -22.1875 64.4375 C-21.30384766 64.58509766 -20.42019531 64.73269531 -19.50976562 64.88476562 C-17.33837881 65.24861963 -15.16871131 65.62057888 -13 66 C-13.03391846 65.02724121 -13.06783691 64.05448242 -13.1027832 63.05224609 C-13.09813635 58.62497199 -12.26583195 54.48274382 -11.35546875 50.1640625 C-11.18501541 49.32644379 -11.01456207 48.48882507 -10.83894348 47.62582397 C-10.29486949 44.957522 -9.74169193 42.29121712 -9.1875 39.625 C-8.4693877 36.13868581 -7.7557272 32.65147459 -7.04296875 29.1640625 C-6.86764618 28.31370422 -6.69232361 27.46334595 -6.51168823 26.58721924 C-5.65586452 22.39782133 -4.84806891 18.20814425 -4.13916016 13.99121094 C-3.94088371 12.81236832 -3.94088371 12.81236832 -3.73860168 11.60971069 C-3.49456984 10.13131248 -3.25774795 8.6516998 -3.02934265 7.17080688 C-2.21697749 2.21697749 -2.21697749 2.21697749 0 0 Z " fill="#AF3839" transform="translate(617,497)"/>
<path d="M0 0 C1.67542976 0.28604898 3.34385343 0.61781233 5 1 C6.44768062 5.71815701 7.40757998 10.19573227 8 15.11328125 C8.12181641 16.09496529 8.12181641 16.09496529 8.24609375 17.09648132 C8.50265052 19.16788427 8.75199469 21.2400572 9 23.3125 C9.93191687 31.03994737 10.86794134 38.71582087 12.49121094 46.33422852 C13.52634707 51.75776567 14.16624242 57.24837708 14.85986328 62.72436523 C15.12680175 64.82668999 15.40094449 66.92799163 15.67578125 69.02929688 C15.84938524 70.38015354 16.02257721 71.73106323 16.1953125 73.08203125 C16.35016113 74.29093018 16.50500977 75.4998291 16.66455078 76.74536133 C16.95258004 79.53991597 17.14848017 82.19591023 17 85 C16 86 16 86 13.4375 86.0625 C12.633125 86.041875 11.82875 86.02125 11 86 C9.42748305 79.37780578 8.35248645 72.8121317 7.5 66.0625 C6.82898359 60.77179365 6.14771266 55.52296408 5.03515625 50.3046875 C3.57625413 43.28988078 2.80776066 36.16894135 1.9375 29.0625 C1.67793108 26.94907396 1.41722963 24.83582153 1.15272522 22.7230072 C0.91514236 20.82490711 0.68193371 18.92626101 0.44897461 17.02758789 C0.08400032 13.96259376 0.08400032 13.96259376 -1 11 C-1.09267588 9.29367352 -1.12998202 7.58383413 -1.125 5.875 C-1.12757813 4.98554688 -1.13015625 4.09609375 -1.1328125 3.1796875 C-1 1 -1 1 0 0 Z " fill="#AF3739" transform="translate(639,429)"/>
<path d="M0 0 C1.90039062 0.1652832 1.90039062 0.1652832 4 1 C5.36523438 2.87573242 5.36523438 2.87573242 6.59375 5.35546875 C7.06031006 6.27634277 7.52687012 7.1972168 8.00756836 8.14599609 C8.5000708 9.14969238 8.99257324 10.15338867 9.5 11.1875 C10.5722529 13.3095882 11.64652141 15.43065898 12.72265625 17.55078125 C13.54080811 19.17234131 13.54080811 19.17234131 14.37548828 20.82666016 C16.80015766 25.56303715 19.36496335 30.21781419 21.9375 34.875 C23.96409154 38.58020644 25.98252 42.28982605 28 46 C28.59651367 47.0936084 29.19302734 48.1872168 29.80761719 49.31396484 C31.65813653 52.72202877 33.48752442 56.14070179 35.3125 59.5625 C35.89443115 60.62774902 36.4763623 61.69299805 37.07592773 62.79052734 C37.60387939 63.78906738 38.13183105 64.78760742 38.67578125 65.81640625 C39.14927002 66.69756104 39.62275879 67.57871582 40.1105957 68.48657227 C41.1524818 71.43090863 40.87664713 73.04367919 40 76 C37.78125 75.96875 37.78125 75.96875 35 75 C33.24331232 72.50104992 31.87868753 70.19966524 30.5 67.5 C30.0776709 66.70754883 29.6553418 65.91509766 29.22021484 65.09863281 C27.79400284 62.40885153 26.39569574 59.7057317 25 57 C23.96147788 55.00492695 22.92239917 53.01014354 21.8828125 51.015625 C20.24548292 47.86968905 18.61079249 44.72249553 16.9831543 41.5715332 C11.85360052 31.65298008 6.51993203 21.85165735 1.12231445 12.0769043 C0.75195068 11.39152588 0.38158691 10.70614746 0 10 C-0.38518799 9.30624268 -0.77037598 8.61248535 -1.16723633 7.89770508 C-2.3098668 5.29387435 -1.79472766 3.67317485 -1 1 C-0.67 0.67 -0.34 0.34 0 0 Z " fill="#AF3638" transform="translate(544,626)"/>
<path d="M0 0 C4.56062916 1.78112137 7.90329865 4.3361666 10.5 8.5 C11.93321159 11.84416039 12.14454737 13.48268075 12 17 C8.67590909 17.47487013 5.35177165 17.94936748 2.02734375 18.421875 C-0.60709265 18.79776644 -3.23908264 19.18504968 -5.87109375 19.578125 C-7.69833984 19.84882813 -7.69833984 19.84882813 -9.5625 20.125 C-10.67753906 20.29257812 -11.79257812 20.46015625 -12.94140625 20.6328125 C-15.66860975 20.96021624 -18.2578256 21.07149058 -21 21 C-21.60824144 14.1876959 -20.33271641 10.30993234 -16 5 C-10.7851955 0.27029359 -6.95586938 -0.96516848 0 0 Z " fill="#060606" transform="translate(812,472)"/>
<path d="M0 0 C5.57704049 1.96229202 8.2433891 5.10159202 11.25 10.0625 C12 12 12 12 12 16 C8.02141997 16.64948119 4.04203771 17.293915 0.0625 17.9375 C-1.05447266 18.11990234 -2.17144531 18.30230469 -3.32226562 18.49023438 C-9.53943127 19.49300303 -15.73397362 20.36874602 -22 21 C-22.4955681 15.05318274 -21.40279141 10.94857165 -18 6 C-12.3881629 0.20205606 -7.82393993 -0.66202569 0 0 Z " fill="#060606" transform="translate(743,663)"/>
<path d="M0 0 C1.65 0.33 3.3 0.66 5 1 C4.9278125 2.0209375 4.855625 3.041875 4.78125 4.09375 C1.79454241 32.44279704 1.79454241 32.44279704 9.25 59 C11 62 11 62 10.75 64.4375 C10.5025 64.953125 10.255 65.46875 10 66 C8.02 66.495 8.02 66.495 6 67 C1.92986053 62.59984922 -0.2625006 58.71466565 -2 53 C-2.33845947 51.93918213 -2.67691895 50.87836426 -3.02563477 49.78540039 C-3.97801774 46.08540087 -4.25807422 43.01814958 -4.265625 39.2109375 C-4.26820313 37.93863281 -4.27078125 36.66632813 -4.2734375 35.35546875 C-4.26183594 33.38513672 -4.26183594 33.38513672 -4.25 31.375 C-4.25773438 30.08464844 -4.26546875 28.79429687 -4.2734375 27.46484375 C-4.23090278 6.34635417 -4.23090278 6.34635417 0 0 Z " fill="#B0383A" transform="translate(944,437)"/>
<path d="M0 0 C-0.33 1.65 -0.66 3.3 -1 5 C-1.54527344 5.14695312 -2.09054687 5.29390625 -2.65234375 5.4453125 C-9.65384328 7.5278098 -16.50618537 10.18802621 -20.640625 16.5078125 C-24.30493356 23.7311334 -25.2522266 30.00880284 -25.60546875 38.015625 C-25.89860703 43.89860703 -25.89860703 43.89860703 -27 45 C-28.66617115 45.04063832 -30.33388095 45.042721 -32 45 C-34.91609379 39.16781242 -33.51951793 28.75808453 -31.875 22.625 C-28.69752905 13.68650696 -22.9938866 6.19029448 -14.578125 1.7109375 C-9.25560242 -0.66000437 -5.65947503 -1.47638479 0 0 Z " fill="#AE3537" transform="translate(737,645)"/>
<path d="M0 0 C1 1 1 1 1.0625 3.5625 C1.041875 4.366875 1.02125 5.17125 1 6 C0.14277344 6.21914063 -0.71445312 6.43828125 -1.59765625 6.6640625 C-9.52427219 8.86242498 -15.71635966 10.85731406 -20.26953125 17.98828125 C-24.04595383 25.07407767 -24.23117797 31.99521184 -24.62109375 39.91796875 C-25 43 -25 43 -27 45 C-29.625 44.625 -29.625 44.625 -32 44 C-32.61313207 30.42593729 -31.41818549 18.68641798 -22 8 C-15.2931343 2.38886999 -8.85591525 -0.52093619 0 0 Z " fill="#AF3638" transform="translate(805,455)"/>
<path d="M0 0 C0.625 2.375 0.625 2.375 1 5 C-1.52300479 7.52300479 -2.99146076 7.52371531 -6.48828125 8.0703125 C-7.58720703 8.24433594 -8.68613281 8.41835938 -9.81835938 8.59765625 C-10.97142578 8.77167969 -12.12449219 8.94570313 -13.3125 9.125 C-14.45396484 9.30675781 -15.59542969 9.48851562 -16.77148438 9.67578125 C-21.5608745 10.42036206 -26.1429626 11.11457113 -31 11 C-31.625 8.625 -31.625 8.625 -32 6 C-29.58090397 3.58090397 -28.34812651 3.50526263 -25.01953125 2.9296875 C-23.5200293 2.66865234 -23.5200293 2.66865234 -21.99023438 2.40234375 C-20.94158203 2.22832031 -19.89292969 2.05429687 -18.8125 1.875 C-17.78318359 1.69324219 -16.75386719 1.51148438 -15.69335938 1.32421875 C-10.39044497 0.42058311 -5.37886145 -0.22824023 0 0 Z " fill="#AE4649" transform="translate(266,653)"/>
</svg>
